<?xml version="1.0" encoding="UTF-8"?>
<svg version="1.1" xmlns="http://www.w3.org/2000/svg" width="2048" height="2048">
<path d="M0 0 C2.22514862 0.34171189 4.45042042 0.68262209 6.67578125 1.02294922 C7.95211426 1.2324823 9.22844727 1.44201538 10.54345703 1.65789795 C15.53133099 2.46349766 20.53564851 3.13684782 25.54296875 3.80908203 C34.66316706 5.03608832 43.77842107 6.29422172 52.89118958 7.57523537 C59.30415635 8.47648705 65.71828053 9.36872852 72.13349152 10.25386143 C76.28455313 10.82860903 80.4344634 11.41134982 84.58409119 11.99635124 C86.56450657 12.27409747 88.54535428 12.54877889 90.52662659 12.82034492 C93.26707126 13.1966932 96.00568993 13.58429883 98.74414062 13.97485352 C99.56153717 14.08450943 100.37893372 14.19416534 101.22109985 14.30714417 C103.12747176 14.5850956 105.01980279 14.95672434 106.90625 15.34765625 C108.61245634 18.76006894 106.92048297 22.42827409 106.0703125 26.00390625 C105.87150482 26.86197876 105.67269714 27.72005127 105.46786499 28.60412598 C105.04562502 30.42059815 104.62004406 32.23629642 104.19140625 34.05126953 C103.53433125 36.83460423 102.88737174 39.62013762 102.2421875 42.40625 C101.83132119 44.16810691 101.41988199 45.92983035 101.0078125 47.69140625 C100.81297272 48.52788696 100.61813293 49.36436768 100.41738892 50.22619629 C99.02311692 56.11392241 99.02311692 56.11392241 97.90625 58.34765625 C99.040625 58.43015625 100.175 58.51265625 101.34375 58.59765625 C114.80471343 60.16775307 127.28098496 64.30964333 139.8359375 69.25 C140.63501526 69.55826218 141.43409302 69.86652435 142.25738525 70.18412781 C144.90625 71.34765625 144.90625 71.34765625 146.96582031 72.75213623 C156.99882839 79.03116323 168.92072053 75.17731203 179.8515625 73.3359375 C182.1903473 72.96701706 184.52962295 72.6011963 186.86935425 72.23832703 C193.00919936 71.27854434 199.14227848 70.28097081 205.27453613 69.27398682 C213.91599881 67.86200972 222.56571412 66.50135864 231.21456909 65.13554382 C235.81447196 64.40904311 240.41167779 63.66810714 245.00735474 62.9153595 C247.11442972 62.57542093 249.22151535 62.23554827 251.32861328 61.89575195 C252.74092224 61.65955139 252.74092224 61.65955139 254.1817627 61.4185791 C262.61249911 60.07239274 269.84068613 59.53847163 277.96875 62.54296875 C278.60377441 62.7728952 279.23879883 63.00282166 279.89306641 63.23971558 C281.90267317 63.97064667 283.90434955 64.7209103 285.90625 65.47265625 C287.21434989 65.95316949 288.52294245 66.43234373 289.83203125 66.91015625 C292.4956983 67.88373659 295.15678612 68.86398273 297.81665039 69.84790039 C302.64355383 71.62640049 307.49498367 73.33315519 312.3480072 75.03877258 C317.59312272 76.8826227 322.83165581 78.74411603 328.06640625 80.6171875 C328.85559448 80.89949219 329.64478271 81.18179687 330.45788574 81.47265625 C332.10535073 82.0620656 333.75279078 82.65154468 335.40020752 83.24108887 C354.67347655 90.1373863 373.96471674 96.98219648 393.26586914 103.80004883 C394.25098984 104.14834244 395.23611053 104.49663605 396.25108337 104.85548401 C398.08521548 105.50394807 399.91955937 106.15181359 401.75416565 106.79893494 C406.82691804 108.59301103 411.87404068 110.44271439 416.90625 112.34765625 C416.57625 113.00765625 416.24625 113.66765625 415.90625 114.34765625 C413.63816166 115.03268909 413.63816166 115.03268909 410.57008362 115.6554718 C408.83216805 116.0147728 408.83216805 116.0147728 407.05914307 116.3813324 C405.77578064 116.63745804 404.49241821 116.89358368 403.17016602 117.1574707 C401.81305644 117.4346276 400.45610072 117.71253879 399.09928894 117.9911499 C395.39679485 118.74914039 391.69220127 119.49637567 387.98714566 120.24172997 C384.09030048 121.02747875 380.19540568 121.82278007 376.30027771 122.61698914 C369.73135318 123.95498978 363.16117868 125.28669445 356.59008789 126.61401367 C347.41578951 128.46717483 338.24378128 130.33146723 329.07222474 132.1981436 C321.87282444 133.66298503 314.67278879 135.12470019 307.47265625 136.5859375 C306.71723203 136.73927811 305.96180781 136.89261872 305.18349195 137.05060601 C286.11066417 140.92124926 267.02726361 144.72072313 247.90625 148.34765625 C248.23625 149.99765625 248.56625 151.64765625 248.90625 153.34765625 C281.09601739 160.32112692 313.3390363 167.02870263 345.59569335 173.68506658 C352.30529762 175.06970264 359.01452134 176.45617864 365.72372556 177.84275162 C379.45083412 180.67965587 393.17838156 183.5144315 406.90625 186.34765625 C406.90625 189.34765625 406.90625 189.34765625 405.5078125 190.78295898 C404.85554688 191.27739502 404.20328125 191.77183105 403.53125 192.28125 C402.43719849 193.12115479 402.43719849 193.12115479 401.32104492 193.97802734 C400.5241626 194.57437988 399.72728027 195.17073242 398.90625 195.78515625 C398.08680908 196.40986816 397.26736816 197.03458008 396.4230957 197.67822266 C393.9250725 199.57833145 391.41727051 201.46476896 388.90625 203.34765625 C387.56637107 204.35672412 386.22652461 205.3658351 384.88671875 206.375 C382.31399347 208.30892046 379.73602411 210.23565296 377.15625 212.16015625 C372.27369092 215.81049453 367.43608019 219.51923083 362.59375 223.22265625 C355.85183492 228.37600836 349.06733971 233.46201089 342.21875 238.47265625 C335.86539996 243.12122272 329.60772178 247.87342908 323.40625 252.72265625 C322.65512939 253.30490967 321.90400879 253.88716309 321.13012695 254.48706055 C317.9418206 256.95967537 314.7747777 259.44106318 311.6875 262.0390625 C310.7696875 262.78027344 309.851875 263.52148438 308.90625 264.28515625 C308.16375 264.91292969 307.42125 265.54070312 306.65625 266.1875 C299.01086659 269.41289613 287.61264488 265.30497243 279.77099609 263.84741211 C278.37371929 263.59074441 276.97637328 263.33445319 275.57896423 263.07850647 C272.58904697 262.53017133 269.59958636 261.97943291 266.61045456 261.4268322 C261.87846388 260.5522784 257.14523175 259.6845799 252.41177368 258.81800842 C239.8087346 256.50967808 227.20720242 254.19317005 214.60669482 251.87106186 C206.3134109 250.34272728 198.01940698 248.81843633 189.72396719 247.30184275 C185.02346776 246.44215503 180.32420412 245.57608705 175.62577415 244.70516384 C172.69919447 244.16420632 169.77155141 243.62919071 166.84358406 243.0958004 C164.85000668 242.73082534 162.85772296 242.35880572 160.86549377 241.98654175 C148.9685713 239.69684239 148.9685713 239.69684239 137.39453125 242.359375 C136.39881104 242.78549072 135.40309082 243.21160645 134.37719727 243.65063477 C133.33490967 244.10752686 132.29262207 244.56441895 131.21875 245.03515625 C121.21820371 249.25048338 111.42377253 252.27451682 100.81640625 254.5078125 C97.13806716 255.1278245 97.13806716 255.1278245 94.90625 256.34765625 C95.14428345 257.01528992 95.38231689 257.68292358 95.62756348 258.37078857 C97.87069829 264.66583496 100.10778792 270.96299265 102.33812714 277.26258469 C103.48495347 280.50111974 104.63409311 283.7387944 105.78857422 286.97460938 C107.11599482 290.69546726 108.43325705 294.41988064 109.75 298.14453125 C110.16560181 299.30507019 110.58120361 300.46560913 111.00939941 301.66131592 C111.3897937 302.7421344 111.77018799 303.82295288 112.16210938 304.93652344 C112.49964233 305.88694519 112.83717529 306.83736694 113.18493652 307.81658936 C113.90625 310.34765625 113.90625 310.34765625 113.90625 314.34765625 C91.21852029 316.44210425 68.5300804 318.52869953 45.84078121 320.6060791 C35.3045623 321.57093324 24.76858627 322.53830631 14.2331543 323.51171875 C5.04502734 324.3606415 -4.14352934 325.20472674 -13.33262247 326.04312897 C-18.193184 326.48676799 -23.05350443 326.93274274 -27.91331673 327.38452148 C-32.49850911 327.81069363 -37.08425464 328.23033789 -41.67048073 328.64523315 C-43.3430709 328.79765836 -45.01545591 328.952357 -46.68759537 329.10964966 C-75.87811081 331.85089155 -75.87811081 331.85089155 -84.546875 327.62890625 C-85.16328354 327.33930527 -85.77969208 327.04970428 -86.41477966 326.75132751 C-88.40479898 325.80939633 -90.37302221 324.82921196 -92.34375 323.84765625 C-93.75872176 323.17021986 -95.17518455 322.49589022 -96.59301758 321.82446289 C-99.56824337 320.41231741 -102.53639667 318.98662956 -105.50048828 317.55126953 C-112.45711977 314.19632601 -119.49194295 311.01156656 -126.52209473 307.81445312 C-129.41133796 306.498081 -132.29577147 305.17136037 -135.18014526 303.84436035 C-137.19779189 302.92120106 -139.22116415 302.0116588 -141.24560547 301.10351562 C-143.76672401 299.96908729 -146.24515409 298.77814441 -148.71142578 297.52929688 C-157.46768051 293.30711622 -164.01380355 292.81238407 -173.59375 293.97265625 C-176.02034011 294.2197367 -178.44743208 294.46193768 -180.875 294.69921875 C-182.67324219 294.87892212 -182.67324219 294.87892212 -184.5078125 295.06225586 C-190.37642131 295.52933127 -196.21168403 295.45605205 -202.09375 295.34765625 C-203.36025391 295.33089844 -204.62675781 295.31414062 -205.93164062 295.296875 C-229.0652982 294.9331025 -251.13917351 292.79102998 -273.82788086 288.06152344 C-276.90884818 287.43386023 -279.99661113 286.88938781 -283.09375 286.34765625 C-283.94926453 286.16161835 -284.80477905 285.97558044 -285.68621826 285.78390503 C-297.75207432 283.91807153 -309.03543038 288.6099474 -320.41796875 292.14453125 C-322.77380324 292.85819047 -325.13024508 293.56984755 -327.48725891 294.27960205 C-333.66589269 296.14593939 -339.835992 298.03906499 -346.00463867 299.93811035 C-352.26965485 301.86167971 -358.54233694 303.75989283 -364.81445312 305.66015625 C-374.94941626 308.7339146 -385.07960765 311.82280952 -395.20359802 314.93252563 C-396.97696008 315.47689421 -398.75118714 316.01845494 -400.52637291 316.55684662 C-402.26856803 317.09348173 -404.0053201 317.64805153 -405.73670387 318.21860504 C-415.6180652 321.40215973 -423.38549718 319.85818947 -433.37280273 317.68554688 C-434.71358877 317.39922247 -436.05450957 317.11352854 -437.39555359 316.82841492 C-441.02038141 316.05590053 -444.64326892 315.27461994 -448.26586413 314.49171257 C-452.05774256 313.67379573 -455.85135623 312.86400825 -459.64479065 312.05334473 C-466.82106921 310.51847651 -473.99576496 308.97633837 -481.16991621 307.43156099 C-489.34041806 305.67261619 -497.51265807 303.9218153 -505.6850518 302.17168522 C-522.48989709 298.57271282 -539.29253888 294.96355539 -556.09375 291.34765625 C-554.76662174 287.36627147 -552.83120389 286.40131735 -549.46875 283.91015625 C-548.27626907 283.01575397 -547.08490647 282.11985915 -545.89453125 281.22265625 C-545.2701416 280.7534375 -544.64575195 280.28421875 -544.00244141 279.80078125 C-540.84137417 277.39419745 -537.74996686 274.90235074 -534.65625 272.41015625 C-528.96755131 267.83592973 -523.24537951 263.30766368 -517.48461914 258.82446289 C-515.24747025 257.07678283 -513.10338611 255.35729236 -511.09375 253.34765625 C-521.48577816 242.54443519 -535.52934692 243.9061195 -549.51424766 243.5948348 C-553.09778693 243.50628737 -556.67966487 243.37295642 -560.26191711 243.24343872 C-565.59859778 243.05417564 -570.93542057 242.87826667 -576.27307934 242.71892297 C-586.44510731 242.41492557 -596.61162313 242.02037312 -606.77880859 241.58496094 C-607.94210233 241.53531276 -607.94210233 241.53531276 -609.12889695 241.48466158 C-612.27494481 241.35032685 -615.42098083 241.21572288 -618.56698954 241.08047414 C-627.26612358 240.70701179 -635.96603918 240.3531936 -644.66601562 240 C-646.24964923 239.93555549 -647.83328202 239.87109092 -649.41691399 239.80660629 C-655.84616132 239.54488747 -662.27543247 239.28375596 -668.70471191 239.02282715 C-677.6066434 238.66149535 -686.5085317 238.29915751 -695.41030437 237.93393147 C-699.91481118 237.74922603 -704.41939052 237.56645707 -708.92404211 237.38531852 C-712.35787864 237.24669882 -715.79159982 237.10529736 -719.2253418 236.96435547 C-720.4287471 236.91655945 -721.6321524 236.86876343 -722.87202454 236.81951904 C-726.28020758 236.67810451 -729.68674716 236.51490858 -733.09375 236.34765625 C-734.35973337 236.29798832 -735.62571674 236.24832039 -736.93006325 236.19714737 C-738.18051619 236.13387127 -739.43096912 236.07059517 -740.71931458 236.00540161 C-741.84877408 235.95459002 -742.97823359 235.90377842 -744.14191914 235.85142708 C-748.23174306 235.15344197 -750.00063345 233.47409566 -752.4375 230.23242188 C-752.9015625 229.52794922 -753.365625 228.82347656 -753.84375 228.09765625 C-754.37484375 227.37255859 -754.9059375 226.64746094 -755.453125 225.90039062 C-756.52831756 224.42846234 -757.58666839 222.94406875 -758.62695312 221.44726562 C-760.68577192 218.50022142 -762.88461009 215.68390684 -765.09375 212.84765625 C-766.28097656 211.29111328 -766.28097656 211.29111328 -767.4921875 209.703125 C-770.49659975 205.79785888 -773.60585374 201.97912999 -776.71875 198.16015625 C-777.27006592 197.4832373 -777.82138184 196.80631836 -778.3894043 196.10888672 C-780.82000803 193.12751117 -783.25581026 190.15057408 -785.69921875 187.1796875 C-786.42753906 186.28636719 -787.15585937 185.39304687 -787.90625 184.47265625 C-788.53144531 183.71210937 -789.15664063 182.9515625 -789.80078125 182.16796875 C-791.09375 180.34765625 -791.09375 180.34765625 -791.09375 178.34765625 C-760.78293767 172.90553712 -730.44598149 167.63107445 -700.08422852 162.48095703 C-694.40295162 161.51724452 -688.7222155 160.55038184 -683.04160786 159.58273315 C-678.6111003 158.82836402 -674.18032865 158.07555594 -669.74947166 157.32324219 C-667.64935298 156.96647326 -665.5493166 156.60921952 -663.44936562 156.25146484 C-660.56197081 155.75979737 -657.67422812 155.27022875 -654.78637695 154.78125 C-653.92919067 154.6348558 -653.07200439 154.48846161 -652.18884277 154.33763123 C-646.3223567 153.34765625 -646.3223567 153.34765625 -644.09375 153.34765625 C-644.09375 152.35765625 -644.09375 151.36765625 -644.09375 150.34765625 C-652.76369806 147.78197291 -661.43374002 145.21660714 -670.10388756 142.65159798 C-674.13407931 141.45928112 -678.16424398 140.26687288 -682.19433594 139.07421875 C-704.48774174 132.47686584 -726.78712483 125.90017851 -749.09375 119.34765625 C-747.26187732 115.49854898 -744.8625469 112.29586464 -742.21875 108.97265625 C-741.7340625 108.3590625 -741.249375 107.74546875 -740.75 107.11328125 C-736.81515634 102.16950332 -732.72170994 97.3760026 -728.58105469 92.60449219 C-725.09149101 88.56453838 -721.74993001 84.43301997 -718.46875 80.22265625 C-718.01483887 79.65015137 -717.56092773 79.07764648 -717.09326172 78.48779297 C-714.84733935 75.64790766 -712.68941442 72.78653716 -710.640625 69.80078125 C-709.83347234 68.69130511 -709.02618655 67.58192581 -708.21875 66.47265625 C-707.54070312 65.48523437 -706.86265625 64.4978125 -706.1640625 63.48046875 C-702.6482371 61.03817782 -701.55266822 61.09706891 -697.38769531 61.17320251 C-695.6371434 61.20255292 -695.6371434 61.20255292 -693.85122681 61.23249626 C-687.33758971 61.43212767 -680.82941421 61.69654914 -674.3203125 62.00610352 C-672.78287001 62.07696786 -671.24541433 62.1475466 -669.70794678 62.21786499 C-666.42377346 62.36853475 -663.13968573 62.52091442 -659.85565186 62.67459297 C-654.65086074 62.91786063 -649.44582082 63.15547952 -644.24072266 63.39207458 C-629.44856844 64.06517576 -614.65667141 64.74368346 -599.86523438 65.43237305 C-591.67555027 65.81363687 -583.48562374 66.18917469 -575.29539299 66.55851406 C-570.13292816 66.79162922 -564.97084631 67.03162955 -559.8089447 67.2768842 C-556.5854399 67.42833298 -553.36165792 67.57305209 -550.13776398 67.71595383 C-548.6563071 67.78292849 -547.17496746 67.85256476 -545.69377899 67.92523384 C-531.0640031 68.64006594 -517.2184622 67.27827789 -502.84375 64.72265625 C-502.11150208 64.59437439 -501.37925415 64.46609253 -500.62481689 64.33392334 C-486.84005452 61.89938029 -473.46493262 58.51708482 -460.09375 54.34765625 C-460.18462891 53.50581787 -460.27550781 52.66397949 -460.36914062 51.79663086 C-460.70753869 48.64540732 -461.04260635 45.49385166 -461.37548828 42.34204102 C-461.51968111 40.98317688 -461.66516485 39.62444903 -461.81201172 38.26586914 C-462.02398227 36.30261812 -462.23078304 34.33881114 -462.4375 32.375 C-462.56318359 31.19671631 -462.68886719 30.01843262 -462.81835938 28.80444336 C-463.09728806 25.3032455 -463.14079459 21.85835871 -463.09375 18.34765625 C-460.028699 17.48693284 -457.10986859 17.11526062 -453.93695068 16.88572693 C-452.89439117 16.80862488 -451.85183167 16.73152283 -450.77767944 16.65208435 C-449.63900421 16.57152298 -448.50032898 16.49096161 -447.32714844 16.40795898 C-446.12331512 16.32003082 -444.91948181 16.23210266 -443.6791687 16.14151001 C-440.37696993 15.90122099 -437.07457206 15.66416556 -433.77201366 15.42890048 C-431.00456623 15.23139592 -428.23727055 15.03180809 -425.46996903 14.83227116 C-418.92617835 14.36052248 -412.38212032 13.89261766 -405.83789062 13.42700195 C-399.12351201 12.94920604 -392.40964511 12.46465816 -385.69599509 11.9767403 C-379.90916969 11.55644727 -374.12203228 11.14065272 -368.33463693 10.72828251 C-364.88885147 10.48270466 -361.44320469 10.23549388 -357.99785614 9.98385429 C-317.02093103 7.00409066 -317.02093103 7.00409066 -310.30053711 12.26074219 C-309.33192749 13.10813965 -309.33192749 13.10813965 -308.34375 13.97265625 C-306.85235329 15.16018525 -305.35877162 16.34497417 -303.86328125 17.52734375 C-303.09838379 18.14963867 -302.33348633 18.77193359 -301.54541016 19.41308594 C-297.18966539 22.85014245 -292.59998594 25.95286755 -288.03125 29.09765625 C-286.33087341 30.2782821 -284.63155561 31.46043519 -282.93359375 32.64453125 C-281.85646118 33.39234863 -281.85646118 33.39234863 -280.75756836 34.15527344 C-279.09375 35.34765625 -279.09375 35.34765625 -278.09375 36.34765625 C-272.71045506 37.17312794 -267.39752779 37.52486249 -261.95288086 37.62890625 C-260.79756615 37.65597656 -260.79756615 37.65597656 -259.61891174 37.68359375 C-257.96137915 37.72192537 -256.30380304 37.7584125 -254.64619255 37.79321289 C-252.01814121 37.84850738 -249.39025158 37.90895733 -246.76234436 37.97070312 C-240.2393738 38.12293137 -233.7162184 38.26650944 -227.1930542 38.41015625 C-221.66892448 38.53211276 -216.14489226 38.65746956 -210.62094307 38.78735352 C-208.04032116 38.84664018 -205.45962557 38.90095424 -202.87889099 38.95507812 C-201.28766312 38.99194024 -199.69644066 39.02903726 -198.10522461 39.06640625 C-197.39490082 39.07994141 -196.68457703 39.09347656 -195.95272827 39.10742188 C-191.58087867 39.21657462 -187.40174353 39.65473383 -183.09375 40.34765625 C-187.38852496 49.71698374 -191.86928655 58.93780666 -196.72998047 68.02661133 C-202.15181843 78.232604 -207.24674361 88.60588684 -212.38061523 98.95874023 C-212.7427562 99.68721664 -213.10489716 100.41569305 -213.47801208 101.16624451 C-214.16401432 102.54634883 -214.84831608 103.92730014 -215.53065491 105.30921936 C-216.92673158 108.11617195 -218.35153247 110.73432995 -220.09375 113.34765625 C-222.40298462 113.7953949 -222.40298462 113.7953949 -225.34228516 113.90014648 C-226.45031998 113.94724258 -227.5583548 113.99433868 -228.69996643 114.04286194 C-229.91530563 114.08028 -231.13064484 114.11769806 -232.3828125 114.15625 C-234.32275955 114.23491997 -236.26270592 114.31360964 -238.2026186 114.39312267 C-240.27686128 114.47588447 -242.35126066 114.55204185 -244.42581177 114.62664795 C-251.65150673 114.88895819 -258.87451784 115.21490618 -266.09765625 115.5390625 C-266.82413046 115.57132431 -267.55060467 115.60358612 -268.29909325 115.63682556 C-353.29859263 117.33982862 -353.29859263 117.33982862 -432.09375 144.34765625 C-432.75375 145.33765625 -433.41375 146.32765625 -434.09375 147.34765625 C-381.83986819 196.03877339 -268.40480876 198.90892461 -201.09375 202.34765625 C-200.3358316 202.3889566 -199.57791321 202.43025696 -198.79702759 202.47280884 C-183.78835178 203.28419207 -168.81064117 203.5500905 -153.78125 203.53515625 C-152.0787207 203.53424988 -152.0787207 203.53424988 -150.34179688 203.5333252 C-56.174653 205.18113592 -56.174653 205.18113592 27.19140625 171.171875 C27.75730469 170.56988281 28.32320312 169.96789063 28.90625 169.34765625 C-5.40290685 137.93124522 -66.11605706 133.07561903 -110.12991333 124.68408203 C-117.46054774 123.28451045 -124.77876548 121.82676637 -132.09375 120.34765625 C-130.68367399 115.8217741 -128.89723446 111.5774427 -126.85546875 107.30859375 C-126.37944214 106.30219597 -126.37944214 106.30219597 -125.89379883 105.27546692 C-124.85932413 103.0897407 -123.82030148 100.90620993 -122.78125 98.72265625 C-121.33178604 95.66479424 -119.88460148 92.6058556 -118.4375 89.546875 C-118.0729924 88.77714859 -117.7084848 88.00742218 -117.33293152 87.21437073 C-114.94772774 82.17219671 -112.58764544 77.11907619 -110.25 72.0546875 C-109.95261429 71.41084106 -109.65522858 70.76699463 -109.34883118 70.1036377 C-107.95177483 67.07710676 -106.55829599 64.04901187 -105.16870117 61.01904297 C-104.67345947 59.94541504 -104.17821777 58.87178711 -103.66796875 57.765625 C-103.02734497 56.36993286 -103.02734497 56.36993286 -102.3737793 54.94604492 C-101.95136963 54.08857666 -101.52895996 53.2311084 -101.09375 52.34765625 C-100.65724121 51.43757813 -100.22073242 50.5275 -99.77099609 49.58984375 C-98.09375 47.34765625 -98.09375 47.34765625 -95.61694336 46.44458008 C-94.64893799 46.31591553 -93.68093262 46.18725098 -92.68359375 46.0546875 C-91.61044922 45.89935547 -90.53730469 45.74402344 -89.43164062 45.58398438 C-88.30951172 45.44412109 -87.18738281 45.30425781 -86.03125 45.16015625 C-83.83178611 44.85593376 -81.63256305 44.54996462 -79.43359375 44.2421875 C-78.36270508 44.09241455 -77.29181641 43.9426416 -76.18847656 43.78833008 C-74.65658691 43.57019653 -74.65658691 43.57019653 -73.09375 43.34765625 C-72.16788086 43.21963623 -71.24201172 43.09161621 -70.28808594 42.9597168 C-64.49822549 42.01021026 -60.86369796 40.38751804 -56.46875 36.53515625 C-55.88738281 36.05304688 -55.30601562 35.5709375 -54.70703125 35.07421875 C-53.46627073 34.04420312 -52.23166652 33.0067321 -51.00292969 31.96240234 C-47.742734 29.20499387 -44.41252409 26.53397792 -41.09375 23.84765625 C-39.74865919 22.75134959 -38.40360693 21.65499564 -37.05859375 20.55859375 C-31.74465201 16.2414222 -26.39657788 11.95449068 -20.93971252 7.81861877 C-19.03524305 6.33987435 -19.03524305 6.33987435 -17.14988708 4.53636169 C-11.18882408 -0.74827829 -7.68751956 -1.45252779 0 0 Z " fill="#B64029" transform="translate(806.09375,1508.65234375)"/>
<path d="M0 0 C0.66 0.33 1.32 0.66 2 1 C-1.61328125 5.6875 -1.61328125 5.6875 -3 7 C-3.99 7 -4.98 7 -6 7 C-4.77065985 3.31197956 -3.06140622 2.27643027 0 0 Z " fill="#A3331C" transform="translate(256,1793)"/>
<path d="" fill="#AA2B00" transform="translate(0,0)"/>
<path d="" fill="#802B00" transform="translate(0,0)"/>
<path d="" fill="#90210B" transform="translate(0,0)"/>
</svg>
