<?xml version="1.0" encoding="UTF-8"?>
<svg version="1.1" xmlns="http://www.w3.org/2000/svg" width="2048" height="2048">
<path d="M0 0 C0.73049561 0.00093658 1.46099121 0.00187317 2.21362305 0.00283813 C31.258891 0.0835371 57.44078257 4.21582882 79.11328125 25.3046875 C99.89498405 47.33732775 102.70838553 77.24129105 101.9375 106.1875 C101.6075 106.8475 101.2775 107.5075 100.9375 108.1875 C100.69640154 109.67550978 100.49857085 111.17067021 100.32421875 112.66796875 C100.21013672 113.58642578 100.09605469 114.50488281 99.97851562 115.45117188 C99.74905784 117.34895253 99.5247911 119.24737073 99.30664062 121.14648438 C97.23326792 137.58617723 91.48552922 153.36899072 86.375 169.0625 C86.02123291 170.15021698 85.66746582 171.23793396 85.30297852 172.35861206 C80.04997325 188.43890487 74.45819116 204.01072589 66.9375 219.1875 C66.28485817 220.53631414 65.6324947 221.88526303 64.98046875 223.234375 C63.75070357 225.74876238 62.49185955 228.2456901 61.2109375 230.734375 C59.36242988 234.32916863 57.57148174 237.95011751 55.7890625 241.578125 C43.15457585 267.23620708 28.7834932 291.76107893 13.9375 316.1875 C13.3177832 317.2074707 12.69806641 318.22744141 12.05957031 319.27832031 C10.40007469 322.00190578 8.73355711 324.72099556 7.0625 327.4375 C6.61261719 328.17242676 6.16273437 328.90735352 5.69921875 329.66455078 C0.86047788 337.47610164 -4.29206711 345.08316101 -9.40661621 352.71539307 C-11.05684298 355.1790545 -12.70405559 357.6447068 -14.35058594 360.11083984 C-17.15684509 364.31217914 -19.9710824 368.50809479 -22.78930664 372.70141602 C-23.9300421 374.40087904 -25.06871466 376.10172856 -26.20532227 377.80395508 C-33.62866152 388.91821054 -41.32201872 399.72028552 -49.55404663 410.2507782 C-52.18464398 413.62823443 -54.77779146 417.03434646 -57.375 420.4375 C-57.96909668 421.21391846 -58.56319336 421.99033691 -59.17529297 422.7902832 C-62.10420895 426.62028965 -65.02744336 430.45453853 -67.9453125 434.29296875 C-76.06231535 444.96914777 -84.22547359 455.6059354 -92.48681641 466.17089844 C-93.95642582 468.05174346 -95.42205482 469.93561557 -96.88671875 471.8203125 C-103.60012809 480.43777839 -110.52584467 488.87146822 -117.4921875 497.28515625 C-119.5712402 499.80380964 -121.62918129 502.33938999 -123.6875 504.875 C-128.52918452 510.79957514 -133.52003558 516.59321941 -138.51416016 522.38916016 C-140.5363552 524.7378654 -142.55325805 527.09107687 -144.56958008 529.44482422 C-145.56513564 530.6069298 -146.56106694 531.7687136 -147.55737305 532.93017578 C-150.08768569 535.88007556 -152.61384062 538.8333767 -155.1328125 541.79296875 C-160.60207724 548.21109908 -166.14426848 554.53480742 -171.83984375 560.75390625 C-175.96260347 565.26792963 -179.96021065 569.88467835 -183.9140625 574.546875 C-193.34820182 585.65326176 -193.34820182 585.65326176 -198.515625 590.6484375 C-200.14021929 592.26482677 -201.63120692 593.94967141 -203.125 595.6875 C-207.17243325 600.3807035 -211.41708604 604.8827726 -215.65527344 609.40283203 C-219.42714831 613.42783272 -223.16475957 617.48070473 -226.875 621.5625 C-230.81549131 625.87910281 -234.87795 630.03010158 -239.0390625 634.1328125 C-240.84693886 635.96860973 -242.52490496 637.84608049 -244.1875 639.8125 C-248.33706623 644.66340137 -252.91446507 649.09100173 -257.46923828 653.55712891 C-260.54944563 656.59561425 -263.52021317 659.66725839 -266.33436584 662.95518494 C-269.87986739 667.02910738 -273.60767036 670.8740675 -277.43139648 674.68579102 C-278.13157898 675.38772583 -278.83176147 676.08966064 -279.55316162 676.81286621 C-281.84414844 679.10821643 -284.13872899 681.39993364 -286.43359375 683.69140625 C-288.04124801 685.29973513 -289.64875389 686.90821236 -291.25611877 688.51683044 C-294.61581945 691.87800063 -297.97730972 695.23736786 -301.34008789 698.59545898 C-305.63486776 702.88454205 -309.92514209 707.17809939 -314.21407986 711.47302341 C-317.52980863 714.79237798 -320.84793065 718.10933197 -324.16676521 721.42558098 C-325.7490266 723.00717868 -327.33055489 724.58951016 -328.91131401 726.17260933 C-331.12652453 728.39037961 -333.34495032 730.60488504 -335.56420898 732.81860352 C-336.20705338 733.46347214 -336.84989777 734.10834076 -337.51222229 734.77275085 C-341.33232538 738.57534172 -345.26918471 742.18730689 -349.35638523 745.70168972 C-351.35548005 747.44264859 -353.22155646 749.28080847 -355.0625 751.1875 C-357.53963913 753.75310838 -360.12129246 756.13234032 -362.8125 758.46875 C-366.99794371 762.10388537 -371.03835255 765.87556345 -375.0625 769.6875 C-379.66302765 774.0454217 -384.31742363 778.30929405 -389.10253906 782.46386719 C-392.28091064 785.25899715 -395.35662291 788.16086209 -398.4375 791.0625 C-403.49153396 795.80077431 -408.57386971 800.49932098 -413.7421875 805.11328125 C-415.33812202 806.53994999 -416.92626125 807.97537168 -418.5078125 809.41796875 C-422.74725367 813.27865107 -427.04006253 817.02030622 -431.5 820.625 C-436.273903 824.48575137 -440.79638428 828.56187075 -445.3125 832.71875 C-448.87434229 835.91631296 -452.58815833 838.90138343 -456.3125 841.90625 C-459.14349578 844.25468968 -461.85633598 846.69659902 -464.5625 849.1875 C-468.93369657 853.2067782 -473.43762873 856.98783498 -478.05859375 860.71484375 C-481.55916519 863.59632843 -484.96526803 866.57473435 -488.375 869.5625 C-493.68003629 874.19753928 -499.08879281 878.64182818 -504.65600586 882.95703125 C-509.31817759 886.57803449 -513.88853495 890.30046932 -518.4375 894.0625 C-530.5635746 904.08558911 -542.74601002 914.02701395 -555.15527344 923.69824219 C-557.25570067 925.33836074 -559.35050274 926.98552614 -561.4453125 928.6328125 C-568.75135886 934.36455482 -576.08486224 940.01733219 -583.67504883 945.3684082 C-588.58100547 948.82778136 -593.42117153 952.37136275 -598.25 955.9375 C-599.05228027 956.52974365 -599.85456055 957.1219873 -600.68115234 957.73217773 C-603.14215587 959.54986974 -605.60241714 961.3685622 -608.0625 963.1875 C-614.38881486 967.86375014 -620.72052732 972.5325026 -627.0625 977.1875 C-627.84044922 977.75919922 -628.61839844 978.33089844 -629.41992188 978.91992188 C-655.59560096 998.12123185 -682.45393822 1015.24612273 -715.0625 1020.1875 C-716.12098145 1020.36555176 -717.17946289 1020.54360352 -718.27001953 1020.72705078 C-730.51269319 1022.55817131 -742.7386253 1022.49066487 -755.09667969 1022.44824219 C-758.79118415 1022.43756162 -762.48519814 1022.4481674 -766.1796875 1022.4609375 C-784.21259061 1022.47196795 -801.73752813 1021.60280002 -819.38671875 1017.7734375 C-823.66098988 1017.09209779 -827.74712517 1017.06562805 -832.0625 1017.1875 C-805.52823788 1032.69937469 -781.8987894 1041.40207554 -751.19921875 1044.73828125 C-750.49812988 1044.81731689 -749.79704102 1044.89635254 -749.07470703 1044.9777832 C-747.27188105 1045.171701 -745.46605127 1045.33712334 -743.66015625 1045.5 C-741.0625 1046.1875 -741.0625 1046.1875 -739.68359375 1048.25 C-739.47863281 1048.889375 -739.27367187 1049.52875 -739.0625 1050.1875 C-742.07868451 1054.6559215 -745.31543822 1057.13698508 -749.93359375 1059.92578125 C-750.50538361 1060.27195999 -751.07717346 1060.61813873 -751.66629028 1060.97480774 C-757.8651525 1064.70874388 -764.14452792 1068.30258991 -770.4375 1071.875 C-771.66007672 1072.57098011 -772.88256865 1073.26710919 -774.10498047 1073.96337891 C-777.75554582 1076.04151187 -781.4088231 1078.11484413 -785.0625 1080.1875 C-786.13048828 1080.79384277 -787.19847656 1081.40018555 -788.29882812 1082.02490234 C-800.16508101 1088.75883047 -812.036867 1095.48562389 -823.99755859 1102.05078125 C-825.328419 1102.78339961 -826.65705699 1103.52007701 -827.98291016 1104.26171875 C-852.52053259 1117.97373211 -879.00224127 1128.7175229 -905.0625 1139.1875 C-906.27164062 1139.67347656 -907.48078125 1140.15945313 -908.7265625 1140.66015625 C-962.07308382 1161.80289202 -1025.0148317 1178.83241299 -1080.0625 1155.1875 C-1082.07478325 1154.21245326 -1084.08042884 1153.2225816 -1086.0625 1152.1875 C-1086.59875 1153.0640625 -1087.135 1153.940625 -1087.6875 1154.84375 C-1094.67999196 1166.19274847 -1102.0618606 1177.26800374 -1109.48339844 1188.33935547 C-1130.37473273 1219.39673499 -1130.37473273 1219.39673499 -1150.61376953 1250.87988281 C-1152.05398146 1253.17393121 -1153.50716969 1255.45920185 -1154.96484375 1257.7421875 C-1162.7509981 1269.95476209 -1170.26274547 1282.33123263 -1177.75578308 1294.72473145 C-1180.24981139 1298.84870176 -1182.7528358 1302.96708349 -1185.26171875 1307.08203125 C-1194.88447454 1322.8713825 -1204.37278404 1338.73718312 -1213.78364563 1354.65371704 C-1216.06275419 1358.50624386 -1218.35533628 1362.35027208 -1220.66015625 1366.1875 C-1226.95641976 1376.69533923 -1232.91715182 1387.34014921 -1238.68383789 1398.14794922 C-1244.10617085 1408.31022036 -1249.68656929 1418.37826765 -1255.296875 1428.4375 C-1255.89056885 1429.50427979 -1256.4842627 1430.57105957 -1257.09594727 1431.67016602 C-1258.51415514 1434.2140152 -1259.94780852 1436.74867587 -1261.38647461 1439.28100586 C-1267.76372849 1450.55851573 -1273.52226941 1462.07139034 -1279.125 1473.75 C-1280.7993704 1477.23241855 -1282.47776093 1480.71285759 -1284.16015625 1484.19140625 C-1284.77040146 1485.45581039 -1284.77040146 1485.45581039 -1285.39297485 1486.74575806 C-1288.45890278 1493.05523925 -1291.69070328 1499.26358375 -1295.10450745 1505.39222717 C-1297.35821429 1509.52212104 -1298.95477759 1513.61127889 -1300.37214661 1518.09553528 C-1301.27826352 1520.84132407 -1302.45733632 1523.39640323 -1303.7265625 1525.9921875 C-1304.20867188 1526.98734375 -1304.69078125 1527.9825 -1305.1875 1529.0078125 C-1305.93 1530.51988281 -1305.93 1530.51988281 -1306.6875 1532.0625 C-1307.68118695 1534.1008322 -1308.67344272 1536.13986291 -1309.6640625 1538.1796875 C-1310.10057129 1539.07026855 -1310.53708008 1539.96084961 -1310.98681641 1540.87841797 C-1312.15080263 1543.26247979 -1312.15080263 1543.26247979 -1313.0625 1546.1875 C-1336.64488484 1545.61278455 -1336.64488484 1545.61278455 -1348.0625 1542.1875 C-1347.51963667 1535.94457172 -1346.04694948 1530.65169672 -1343.8125 1524.8125 C-1343.49531006 1523.97033936 -1343.17812012 1523.12817871 -1342.85131836 1522.26049805 C-1340.59514283 1516.36109299 -1338.04249482 1510.75652821 -1335.0625 1505.1875 C-1333.93175592 1502.94018157 -1332.80755747 1500.69012143 -1331.6875 1498.4375 C-1330.9975518 1497.05981771 -1330.30743438 1495.68222017 -1329.6171875 1494.3046875 C-1327.91796078 1490.90762573 -1326.22898265 1487.50561806 -1324.54492188 1484.10101318 C-1318.0820194 1471.0407086 -1311.55434191 1458.05798678 -1304.48144531 1445.31396484 C-1300.6466364 1438.36481849 -1297.07924762 1431.30219901 -1293.5625 1424.1875 C-1284.98022458 1406.86542959 -1275.62303035 1390.05535099 -1265.90625 1373.34716797 C-1261.55077874 1365.83640464 -1257.33842294 1358.2599086 -1253.18325806 1350.63769531 C-1245.92831181 1337.33959164 -1238.24675444 1324.35372366 -1230.30282593 1311.4571228 C-1226.59903386 1305.44392604 -1222.93894777 1299.40448825 -1219.27957153 1293.36419678 C-1217.5011765 1290.43020528 -1215.71929615 1287.49833307 -1213.9375 1284.56640625 C-1211.60129544 1280.72178167 -1209.26766838 1276.87562903 -1206.9375 1273.02734375 C-1201.80237859 1264.56263277 -1196.53116897 1256.20278392 -1191.12890625 1247.90625 C-1187.49836374 1242.32858071 -1183.90284708 1236.72860574 -1180.3125 1231.125 C-1179.63098877 1230.06152344 -1178.94947754 1228.99804688 -1178.24731445 1227.90234375 C-1174.25711242 1221.66146311 -1170.31329291 1215.39429569 -1166.40820312 1209.09985352 C-1155.23186266 1191.08613545 -1143.43569468 1173.49696415 -1131.36572266 1156.07177734 C-1129.99385472 1154.08824855 -1128.62708953 1152.10128749 -1127.26171875 1150.11328125 C-1126.79338623 1149.43354248 -1126.32505371 1148.75380371 -1125.8425293 1148.0534668 C-1124.91476706 1146.6975314 -1123.99545288 1145.33577213 -1123.08520508 1143.96801758 C-1120.93351048 1140.7587704 -1118.76776111 1137.78468557 -1116.125 1134.9609375 C-1113.3601038 1131.88310753 -1111.38476772 1129.18092599 -1110.0625 1125.1875 C-1110.68397768 1120.21102326 -1112.97580565 1115.72626801 -1114.98828125 1111.18359375 C-1124.81691451 1088.73871221 -1121.30261375 1059.33164522 -1116.0625 1036.1875 C-1115.81580566 1035.08792969 -1115.56911133 1033.98835938 -1115.31494141 1032.85546875 C-1109.15215118 1005.88900544 -1099.98956335 980.5381374 -1089.0625 955.1875 C-1088.65354492 954.2382666 -1088.24458984 953.2890332 -1087.82324219 952.31103516 C-1078.93966262 931.83935329 -1068.68540969 912.20146924 -1057.58203125 892.85498047 C-1055.75800786 889.6529754 -1053.97877366 886.42799905 -1052.20629883 883.19726562 C-1031.83675765 846.09427623 -1008.03619448 810.71576512 -983.1796875 776.48828125 C-980.87127154 773.30912236 -978.58162116 770.11762012 -976.30688477 766.91430664 C-966.51352371 753.12349021 -956.43473167 739.54775868 -946.0625 726.1875 C-944.39353119 724.02260148 -942.72809144 721.85499741 -941.0625 719.6875 C-940.22790406 718.60283421 -939.39326872 717.51819873 -938.55859375 716.43359375 C-936.90296114 714.2814653 -935.24948773 712.12770335 -933.59765625 709.97265625 C-924.26114322 697.7980502 -914.76148071 685.77021482 -905.06640625 673.87890625 C-902.63133821 670.89106942 -900.21512587 667.88902967 -897.8125 664.875 C-890.52989449 655.75273841 -883.08060358 646.77806257 -875.51269531 637.89208984 C-874.04446961 636.16630671 -872.58076467 634.43675728 -871.1171875 632.70703125 C-865.66751486 626.28694227 -860.09970114 620.01706099 -854.34741211 613.86669922 C-851.32333403 610.61350182 -848.46216773 607.28468125 -845.6875 603.8125 C-840.86001343 597.79576035 -835.57979536 592.24219097 -830.29296875 586.6328125 C-827.3496576 583.50706818 -824.49419781 580.31876839 -821.69140625 577.06640625 C-818.95941929 573.91512154 -816.15448315 570.82962899 -813.359375 567.734375 C-811.90694159 566.1238536 -810.45849324 564.50972143 -809.015625 562.890625 C-802.48831962 555.57807987 -795.77456495 548.44494497 -789.05517578 541.30957031 C-787.12260536 539.2515083 -785.19877148 537.18565055 -783.27734375 535.1171875 C-774.82391066 526.04077879 -766.16321307 517.20306713 -757.33154297 508.4934082 C-756.48865723 507.65898193 -755.64577148 506.82455566 -754.77734375 505.96484375 C-753.66540649 504.87030884 -753.66540649 504.87030884 -752.53100586 503.75366211 C-750.6665143 501.81540963 -748.93247739 499.87055489 -747.1953125 497.82470703 C-741.22715624 490.9570639 -734.65792185 484.63954385 -728.22265625 478.21484375 C-726.77194381 476.76345649 -725.32137975 475.31192092 -723.87095642 473.86024475 C-720.84080417 470.82862391 -717.80886547 467.79880433 -714.77563477 464.77026367 C-710.90459345 460.9049191 -707.0380596 457.03510175 -703.17286015 453.16391659 C-700.18139448 450.16882263 -697.18753289 447.17613271 -694.19296074 444.18414497 C-692.76700056 442.75884779 -691.3417715 441.33281872 -689.91731453 439.90601921 C-676.7598529 426.731667 -676.7598529 426.731667 -670.59422302 421.49684143 C-668.49744262 419.70447988 -666.55774476 417.77915256 -664.625 415.8125 C-663.87476563 415.05453125 -663.12453125 414.2965625 -662.3515625 413.515625 C-661.59617187 412.74734375 -660.84078125 411.9790625 -660.0625 411.1875 C-655.19110901 406.23297947 -650.28903875 401.4195004 -645.01855469 396.88964844 C-641.6520531 393.96013657 -638.42886967 390.87891841 -635.1875 387.8125 C-627.29210041 380.37809223 -619.281669 373.10139812 -611.1015625 365.98046875 C-608.85960187 364.00908957 -606.64864197 362.00587309 -604.4375 360 C-599.88526596 355.8925644 -595.25008355 351.89204074 -590.58740234 347.91137695 C-586.22838427 344.18987844 -581.89003559 340.44554919 -577.5625 336.6875 C-563.47336165 324.46125277 -549.34339716 312.27660234 -534.875 300.5 C-531.74450149 297.92603455 -528.65084366 295.31173097 -525.5625 292.6875 C-519.78704986 287.78202058 -513.94152917 282.96853401 -508.0625 278.1875 C-506.35356802 276.79239966 -504.64524921 275.39654792 -502.9375 274 C-502.03386719 273.26136719 -501.13023437 272.52273438 -500.19921875 271.76171875 C-497.82074612 269.81328768 -495.45041551 267.85521068 -493.08203125 265.89453125 C-484.78866649 259.03311436 -476.44406841 252.25664744 -467.94482422 245.65185547 C-465.87805804 244.04401325 -463.81588346 242.43038488 -461.75390625 240.81640625 C-452.58750418 233.65129412 -443.34651657 226.59773095 -434.01708984 219.64648438 C-432.06664509 218.19059407 -430.12049133 216.72916467 -428.17578125 215.265625 C-413.0361579 203.87264749 -397.8152957 192.60688822 -382.28857422 181.74560547 C-379.93094062 180.09541709 -377.57663525 178.44055311 -375.22265625 176.78515625 C-364.71306781 169.40167551 -354.14799251 162.10410719 -343.53271484 154.87353516 C-340.9829834 153.13322627 -338.43836554 151.38563451 -335.89453125 149.63671875 C-314.96878132 135.27141221 -293.75341581 121.37150308 -272.0625 108.1875 C-271.26247559 107.70007324 -270.46245117 107.21264648 -269.63818359 106.71044922 C-247.33724302 93.14717183 -224.70303075 80.21928097 -201.60693359 68.05810547 C-198.10105006 66.21119913 -194.60775438 64.34106142 -191.11328125 62.47265625 C-173.51274289 53.1369955 -155.51163254 44.898767 -137.22802734 36.99316406 C-133.49313605 35.37785057 -129.77121478 33.73430599 -126.05078125 32.0859375 C-104.17511006 22.48597747 -81.54572295 15.36270981 -58.625 8.75 C-57.90273224 8.54035614 -57.18046448 8.33071228 -56.43630981 8.11471558 C-37.63587439 2.68301294 -19.5808977 -0.03240586 0 0 Z " fill="#F4F0E5" transform="translate(1935.0625,133.8125)"/>
<path d="M0 0 C2.22514862 0.34171189 4.45042042 0.68262209 6.67578125 1.02294922 C7.95211426 1.2324823 9.22844727 1.44201538 10.54345703 1.65789795 C15.53133099 2.46349766 20.53564851 3.13684782 25.54296875 3.80908203 C34.66316706 5.03608832 43.77842107 6.29422172 52.89118958 7.57523537 C59.30415635 8.47648705 65.71828053 9.36872852 72.13349152 10.25386143 C76.28455313 10.82860903 80.4344634 11.41134982 84.58409119 11.99635124 C86.56450657 12.27409747 88.54535428 12.54877889 90.52662659 12.82034492 C93.26707126 13.1966932 96.00568993 13.58429883 98.74414062 13.97485352 C99.56153717 14.08450943 100.37893372 14.19416534 101.22109985 14.30714417 C103.12747176 14.5850956 105.01980279 14.95672434 106.90625 15.34765625 C108.61245634 18.76006894 106.92048297 22.42827409 106.0703125 26.00390625 C105.87150482 26.86197876 105.67269714 27.72005127 105.46786499 28.60412598 C105.04562502 30.42059815 104.62004406 32.23629642 104.19140625 34.05126953 C103.53433125 36.83460423 102.88737174 39.62013762 102.2421875 42.40625 C101.83132119 44.16810691 101.41988199 45.92983035 101.0078125 47.69140625 C100.81297272 48.52788696 100.61813293 49.36436768 100.41738892 50.22619629 C99.02311692 56.11392241 99.02311692 56.11392241 97.90625 58.34765625 C99.040625 58.43015625 100.175 58.51265625 101.34375 58.59765625 C114.80471343 60.16775307 127.28098496 64.30964333 139.8359375 69.25 C140.63501526 69.55826218 141.43409302 69.86652435 142.25738525 70.18412781 C144.90625 71.34765625 144.90625 71.34765625 146.96582031 72.75213623 C156.99882839 79.03116323 168.92072053 75.17731203 179.8515625 73.3359375 C182.1903473 72.96701706 184.52962295 72.6011963 186.86935425 72.23832703 C193.00919936 71.27854434 199.14227848 70.28097081 205.27453613 69.27398682 C213.91599881 67.86200972 222.56571412 66.50135864 231.21456909 65.13554382 C235.81447196 64.40904311 240.41167779 63.66810714 245.00735474 62.9153595 C247.11442972 62.57542093 249.22151535 62.23554827 251.32861328 61.89575195 C252.74092224 61.65955139 252.74092224 61.65955139 254.1817627 61.4185791 C262.61249911 60.07239274 269.84068613 59.53847163 277.96875 62.54296875 C278.60377441 62.7728952 279.23879883 63.00282166 279.89306641 63.23971558 C281.90267317 63.97064667 283.90434955 64.7209103 285.90625 65.47265625 C287.21434989 65.95316949 288.52294245 66.43234373 289.83203125 66.91015625 C292.4956983 67.88373659 295.15678612 68.86398273 297.81665039 69.84790039 C302.64355383 71.62640049 307.49498367 73.33315519 312.3480072 75.03877258 C317.59312272 76.8826227 322.83165581 78.74411603 328.06640625 80.6171875 C328.85559448 80.89949219 329.64478271 81.18179687 330.45788574 81.47265625 C332.10535073 82.0620656 333.75279078 82.65154468 335.40020752 83.24108887 C354.67347655 90.1373863 373.96471674 96.98219648 393.26586914 103.80004883 C394.25098984 104.14834244 395.23611053 104.49663605 396.25108337 104.85548401 C398.08521548 105.50394807 399.91955937 106.15181359 401.75416565 106.79893494 C406.82691804 108.59301103 411.87404068 110.44271439 416.90625 112.34765625 C416.57625 113.00765625 416.24625 113.66765625 415.90625 114.34765625 C413.63816166 115.03268909 413.63816166 115.03268909 410.57008362 115.6554718 C408.83216805 116.0147728 408.83216805 116.0147728 407.05914307 116.3813324 C405.77578064 116.63745804 404.49241821 116.89358368 403.17016602 117.1574707 C401.81305644 117.4346276 400.45610072 117.71253879 399.09928894 117.9911499 C395.39679485 118.74914039 391.69220127 119.49637567 387.98714566 120.24172997 C384.09030048 121.02747875 380.19540568 121.82278007 376.30027771 122.61698914 C369.73135318 123.95498978 363.16117868 125.28669445 356.59008789 126.61401367 C347.41578951 128.46717483 338.24378128 130.33146723 329.07222474 132.1981436 C321.87282444 133.66298503 314.67278879 135.12470019 307.47265625 136.5859375 C306.71723203 136.73927811 305.96180781 136.89261872 305.18349195 137.05060601 C286.11066417 140.92124926 267.02726361 144.72072313 247.90625 148.34765625 C248.23625 149.99765625 248.56625 151.64765625 248.90625 153.34765625 C281.09601739 160.32112692 313.3390363 167.02870263 345.59569335 173.68506658 C352.30529762 175.06970264 359.01452134 176.45617864 365.72372556 177.84275162 C379.45083412 180.67965587 393.17838156 183.5144315 406.90625 186.34765625 C406.90625 189.34765625 406.90625 189.34765625 405.5078125 190.78295898 C404.85554688 191.27739502 404.20328125 191.77183105 403.53125 192.28125 C402.43719849 193.12115479 402.43719849 193.12115479 401.32104492 193.97802734 C400.5241626 194.57437988 399.72728027 195.17073242 398.90625 195.78515625 C398.08680908 196.40986816 397.26736816 197.03458008 396.4230957 197.67822266 C393.9250725 199.57833145 391.41727051 201.46476896 388.90625 203.34765625 C387.56637107 204.35672412 386.22652461 205.3658351 384.88671875 206.375 C382.31399347 208.30892046 379.73602411 210.23565296 377.15625 212.16015625 C372.27369092 215.81049453 367.43608019 219.51923083 362.59375 223.22265625 C355.85183492 228.37600836 349.06733971 233.46201089 342.21875 238.47265625 C335.86539996 243.12122272 329.60772178 247.87342908 323.40625 252.72265625 C322.65512939 253.30490967 321.90400879 253.88716309 321.13012695 254.48706055 C317.9418206 256.95967537 314.7747777 259.44106318 311.6875 262.0390625 C310.7696875 262.78027344 309.851875 263.52148438 308.90625 264.28515625 C308.16375 264.91292969 307.42125 265.54070312 306.65625 266.1875 C299.01086659 269.41289613 287.61264488 265.30497243 279.77099609 263.84741211 C278.37371929 263.59074441 276.97637328 263.33445319 275.57896423 263.07850647 C272.58904697 262.53017133 269.59958636 261.97943291 266.61045456 261.4268322 C261.87846388 260.5522784 257.14523175 259.6845799 252.41177368 258.81800842 C239.8087346 256.50967808 227.20720242 254.19317005 214.60669482 251.87106186 C206.3134109 250.34272728 198.01940698 248.81843633 189.72396719 247.30184275 C185.02346776 246.44215503 180.32420412 245.57608705 175.62577415 244.70516384 C172.69919447 244.16420632 169.77155141 243.62919071 166.84358406 243.0958004 C164.85000668 242.73082534 162.85772296 242.35880572 160.86549377 241.98654175 C148.9685713 239.69684239 148.9685713 239.69684239 137.39453125 242.359375 C136.39881104 242.78549072 135.40309082 243.21160645 134.37719727 243.65063477 C133.33490967 244.10752686 132.29262207 244.56441895 131.21875 245.03515625 C121.21820371 249.25048338 111.42377253 252.27451682 100.81640625 254.5078125 C97.13806716 255.1278245 97.13806716 255.1278245 94.90625 256.34765625 C95.14428345 257.01528992 95.38231689 257.68292358 95.62756348 258.37078857 C97.87069829 264.66583496 100.10778792 270.96299265 102.33812714 277.26258469 C103.48495347 280.50111974 104.63409311 283.7387944 105.78857422 286.97460938 C107.11599482 290.69546726 108.43325705 294.41988064 109.75 298.14453125 C110.16560181 299.30507019 110.58120361 300.46560913 111.00939941 301.66131592 C111.3897937 302.7421344 111.77018799 303.82295288 112.16210938 304.93652344 C112.49964233 305.88694519 112.83717529 306.83736694 113.18493652 307.81658936 C113.90625 310.34765625 113.90625 310.34765625 113.90625 314.34765625 C91.21852029 316.44210425 68.5300804 318.52869953 45.84078121 320.6060791 C35.3045623 321.57093324 24.76858627 322.53830631 14.2331543 323.51171875 C5.04502734 324.3606415 -4.14352934 325.20472674 -13.33262247 326.04312897 C-18.193184 326.48676799 -23.05350443 326.93274274 -27.91331673 327.38452148 C-32.49850911 327.81069363 -37.08425464 328.23033789 -41.67048073 328.64523315 C-43.3430709 328.79765836 -45.01545591 328.952357 -46.68759537 329.10964966 C-75.87811081 331.85089155 -75.87811081 331.85089155 -84.546875 327.62890625 C-85.16328354 327.33930527 -85.77969208 327.04970428 -86.41477966 326.75132751 C-88.40479898 325.80939633 -90.37302221 324.82921196 -92.34375 323.84765625 C-93.75872176 323.17021986 -95.17518455 322.49589022 -96.59301758 321.82446289 C-99.56824337 320.41231741 -102.53639667 318.98662956 -105.50048828 317.55126953 C-112.45711977 314.19632601 -119.49194295 311.01156656 -126.52209473 307.81445312 C-129.41133796 306.498081 -132.29577147 305.17136037 -135.18014526 303.84436035 C-137.19779189 302.92120106 -139.22116415 302.0116588 -141.24560547 301.10351562 C-143.76672401 299.96908729 -146.24515409 298.77814441 -148.71142578 297.52929688 C-157.46768051 293.30711622 -164.01380355 292.81238407 -173.59375 293.97265625 C-176.02034011 294.2197367 -178.44743208 294.46193768 -180.875 294.69921875 C-182.67324219 294.87892212 -182.67324219 294.87892212 -184.5078125 295.06225586 C-190.37642131 295.52933127 -196.21168403 295.45605205 -202.09375 295.34765625 C-203.36025391 295.33089844 -204.62675781 295.31414062 -205.93164062 295.296875 C-229.0652982 294.9331025 -251.13917351 292.79102998 -273.82788086 288.06152344 C-276.90884818 287.43386023 -279.99661113 286.88938781 -283.09375 286.34765625 C-283.94926453 286.16161835 -284.80477905 285.97558044 -285.68621826 285.78390503 C-297.75207432 283.91807153 -309.03543038 288.6099474 -320.41796875 292.14453125 C-322.77380324 292.85819047 -325.13024508 293.56984755 -327.48725891 294.27960205 C-333.66589269 296.14593939 -339.835992 298.03906499 -346.00463867 299.93811035 C-352.26965485 301.86167971 -358.54233694 303.75989283 -364.81445312 305.66015625 C-374.94941626 308.7339146 -385.07960765 311.82280952 -395.20359802 314.93252563 C-396.97696008 315.47689421 -398.75118714 316.01845494 -400.52637291 316.55684662 C-402.26856803 317.09348173 -404.0053201 317.64805153 -405.73670387 318.21860504 C-415.6180652 321.40215973 -423.38549718 319.85818947 -433.37280273 317.68554688 C-434.71358877 317.39922247 -436.05450957 317.11352854 -437.39555359 316.82841492 C-441.02038141 316.05590053 -444.64326892 315.27461994 -448.26586413 314.49171257 C-452.05774256 313.67379573 -455.85135623 312.86400825 -459.64479065 312.05334473 C-466.82106921 310.51847651 -473.99576496 308.97633837 -481.16991621 307.43156099 C-489.34041806 305.67261619 -497.51265807 303.9218153 -505.6850518 302.17168522 C-522.48989709 298.57271282 -539.29253888 294.96355539 -556.09375 291.34765625 C-554.76662174 287.36627147 -552.83120389 286.40131735 -549.46875 283.91015625 C-548.27626907 283.01575397 -547.08490647 282.11985915 -545.89453125 281.22265625 C-545.2701416 280.7534375 -544.64575195 280.28421875 -544.00244141 279.80078125 C-540.84137417 277.39419745 -537.74996686 274.90235074 -534.65625 272.41015625 C-528.96755131 267.83592973 -523.24537951 263.30766368 -517.48461914 258.82446289 C-515.24747025 257.07678283 -513.10338611 255.35729236 -511.09375 253.34765625 C-521.48577816 242.54443519 -535.52934692 243.9061195 -549.51424766 243.5948348 C-553.09778693 243.50628737 -556.67966487 243.37295642 -560.26191711 243.24343872 C-565.59859778 243.05417564 -570.93542057 242.87826667 -576.27307934 242.71892297 C-586.44510731 242.41492557 -596.61162313 242.02037312 -606.77880859 241.58496094 C-607.94210233 241.53531276 -607.94210233 241.53531276 -609.12889695 241.48466158 C-612.27494481 241.35032685 -615.42098083 241.21572288 -618.56698954 241.08047414 C-627.26612358 240.70701179 -635.96603918 240.3531936 -644.66601562 240 C-646.24964923 239.93555549 -647.83328202 239.87109092 -649.41691399 239.80660629 C-655.84616132 239.54488747 -662.27543247 239.28375596 -668.70471191 239.02282715 C-677.6066434 238.66149535 -686.5085317 238.29915751 -695.41030437 237.93393147 C-699.91481118 237.74922603 -704.41939052 237.56645707 -708.92404211 237.38531852 C-712.35787864 237.24669882 -715.79159982 237.10529736 -719.2253418 236.96435547 C-720.4287471 236.91655945 -721.6321524 236.86876343 -722.87202454 236.81951904 C-726.28020758 236.67810451 -729.68674716 236.51490858 -733.09375 236.34765625 C-734.35973337 236.29798832 -735.62571674 236.24832039 -736.93006325 236.19714737 C-738.18051619 236.13387127 -739.43096912 236.07059517 -740.71931458 236.00540161 C-741.84877408 235.95459002 -742.97823359 235.90377842 -744.14191914 235.85142708 C-748.23174306 235.15344197 -750.00063345 233.47409566 -752.4375 230.23242188 C-752.9015625 229.52794922 -753.365625 228.82347656 -753.84375 228.09765625 C-754.37484375 227.37255859 -754.9059375 226.64746094 -755.453125 225.90039062 C-756.52831756 224.42846234 -757.58666839 222.94406875 -758.62695312 221.44726562 C-760.68577192 218.50022142 -762.88461009 215.68390684 -765.09375 212.84765625 C-766.28097656 211.29111328 -766.28097656 211.29111328 -767.4921875 209.703125 C-770.49659975 205.79785888 -773.60585374 201.97912999 -776.71875 198.16015625 C-777.27006592 197.4832373 -777.82138184 196.80631836 -778.3894043 196.10888672 C-780.82000803 193.12751117 -783.25581026 190.15057408 -785.69921875 187.1796875 C-786.42753906 186.28636719 -787.15585937 185.39304687 -787.90625 184.47265625 C-788.53144531 183.71210937 -789.15664063 182.9515625 -789.80078125 182.16796875 C-791.09375 180.34765625 -791.09375 180.34765625 -791.09375 178.34765625 C-760.78293767 172.90553712 -730.44598149 167.63107445 -700.08422852 162.48095703 C-694.40295162 161.51724452 -688.7222155 160.55038184 -683.04160786 159.58273315 C-678.6111003 158.82836402 -674.18032865 158.07555594 -669.74947166 157.32324219 C-667.64935298 156.96647326 -665.5493166 156.60921952 -663.44936562 156.25146484 C-660.56197081 155.75979737 -657.67422812 155.27022875 -654.78637695 154.78125 C-653.92919067 154.6348558 -653.07200439 154.48846161 -652.18884277 154.33763123 C-646.3223567 153.34765625 -646.3223567 153.34765625 -644.09375 153.34765625 C-644.09375 152.35765625 -644.09375 151.36765625 -644.09375 150.34765625 C-652.76369806 147.78197291 -661.43374002 145.21660714 -670.10388756 142.65159798 C-674.13407931 141.45928112 -678.16424398 140.26687288 -682.19433594 139.07421875 C-704.48774174 132.47686584 -726.78712483 125.90017851 -749.09375 119.34765625 C-747.26187732 115.49854898 -744.8625469 112.29586464 -742.21875 108.97265625 C-741.7340625 108.3590625 -741.249375 107.74546875 -740.75 107.11328125 C-736.81515634 102.16950332 -732.72170994 97.3760026 -728.58105469 92.60449219 C-725.09149101 88.56453838 -721.74993001 84.43301997 -718.46875 80.22265625 C-718.01483887 79.65015137 -717.56092773 79.07764648 -717.09326172 78.48779297 C-714.84733935 75.64790766 -712.68941442 72.78653716 -710.640625 69.80078125 C-709.83347234 68.69130511 -709.02618655 67.58192581 -708.21875 66.47265625 C-707.54070312 65.48523437 -706.86265625 64.4978125 -706.1640625 63.48046875 C-702.6482371 61.03817782 -701.55266822 61.09706891 -697.38769531 61.17320251 C-695.6371434 61.20255292 -695.6371434 61.20255292 -693.85122681 61.23249626 C-687.33758971 61.43212767 -680.82941421 61.69654914 -674.3203125 62.00610352 C-672.78287001 62.07696786 -671.24541433 62.1475466 -669.70794678 62.21786499 C-666.42377346 62.36853475 -663.13968573 62.52091442 -659.85565186 62.67459297 C-654.65086074 62.91786063 -649.44582082 63.15547952 -644.24072266 63.39207458 C-629.44856844 64.06517576 -614.65667141 64.74368346 -599.86523438 65.43237305 C-591.67555027 65.81363687 -583.48562374 66.18917469 -575.29539299 66.55851406 C-570.13292816 66.79162922 -564.97084631 67.03162955 -559.8089447 67.2768842 C-556.5854399 67.42833298 -553.36165792 67.57305209 -550.13776398 67.71595383 C-548.6563071 67.78292849 -547.17496746 67.85256476 -545.69377899 67.92523384 C-531.0640031 68.64006594 -517.2184622 67.27827789 -502.84375 64.72265625 C-502.11150208 64.59437439 -501.37925415 64.46609253 -500.62481689 64.33392334 C-486.84005452 61.89938029 -473.46493262 58.51708482 -460.09375 54.34765625 C-460.18462891 53.50581787 -460.27550781 52.66397949 -460.36914062 51.79663086 C-460.70753869 48.64540732 -461.04260635 45.49385166 -461.37548828 42.34204102 C-461.51968111 40.98317688 -461.66516485 39.62444903 -461.81201172 38.26586914 C-462.02398227 36.30261812 -462.23078304 34.33881114 -462.4375 32.375 C-462.56318359 31.19671631 -462.68886719 30.01843262 -462.81835938 28.80444336 C-463.09728806 25.3032455 -463.14079459 21.85835871 -463.09375 18.34765625 C-460.028699 17.48693284 -457.10986859 17.11526062 -453.93695068 16.88572693 C-452.89439117 16.80862488 -451.85183167 16.73152283 -450.77767944 16.65208435 C-449.63900421 16.57152298 -448.50032898 16.49096161 -447.32714844 16.40795898 C-446.12331512 16.32003082 -444.91948181 16.23210266 -443.6791687 16.14151001 C-440.37696993 15.90122099 -437.07457206 15.66416556 -433.77201366 15.42890048 C-431.00456623 15.23139592 -428.23727055 15.03180809 -425.46996903 14.83227116 C-418.92617835 14.36052248 -412.38212032 13.89261766 -405.83789062 13.42700195 C-399.12351201 12.94920604 -392.40964511 12.46465816 -385.69599509 11.9767403 C-379.90916969 11.55644727 -374.12203228 11.14065272 -368.33463693 10.72828251 C-364.88885147 10.48270466 -361.44320469 10.23549388 -357.99785614 9.98385429 C-317.02093103 7.00409066 -317.02093103 7.00409066 -310.30053711 12.26074219 C-309.33192749 13.10813965 -309.33192749 13.10813965 -308.34375 13.97265625 C-306.85235329 15.16018525 -305.35877162 16.34497417 -303.86328125 17.52734375 C-303.09838379 18.14963867 -302.33348633 18.77193359 -301.54541016 19.41308594 C-297.18966539 22.85014245 -292.59998594 25.95286755 -288.03125 29.09765625 C-286.33087341 30.2782821 -284.63155561 31.46043519 -282.93359375 32.64453125 C-281.85646118 33.39234863 -281.85646118 33.39234863 -280.75756836 34.15527344 C-279.09375 35.34765625 -279.09375 35.34765625 -278.09375 36.34765625 C-272.71045506 37.17312794 -267.39752779 37.52486249 -261.95288086 37.62890625 C-260.79756615 37.65597656 -260.79756615 37.65597656 -259.61891174 37.68359375 C-257.96137915 37.72192537 -256.30380304 37.7584125 -254.64619255 37.79321289 C-252.01814121 37.84850738 -249.39025158 37.90895733 -246.76234436 37.97070312 C-240.2393738 38.12293137 -233.7162184 38.26650944 -227.1930542 38.41015625 C-221.66892448 38.53211276 -216.14489226 38.65746956 -210.62094307 38.78735352 C-208.04032116 38.84664018 -205.45962557 38.90095424 -202.87889099 38.95507812 C-201.28766312 38.99194024 -199.69644066 39.02903726 -198.10522461 39.06640625 C-197.39490082 39.07994141 -196.68457703 39.09347656 -195.95272827 39.10742188 C-191.58087867 39.21657462 -187.40174353 39.65473383 -183.09375 40.34765625 C-187.38852496 49.71698374 -191.86928655 58.93780666 -196.72998047 68.02661133 C-202.15181843 78.232604 -207.24674361 88.60588684 -212.38061523 98.95874023 C-212.7427562 99.68721664 -213.10489716 100.41569305 -213.47801208 101.16624451 C-214.16401432 102.54634883 -214.84831608 103.92730014 -215.53065491 105.30921936 C-216.92673158 108.11617195 -218.35153247 110.73432995 -220.09375 113.34765625 C-222.40298462 113.7953949 -222.40298462 113.7953949 -225.34228516 113.90014648 C-226.45031998 113.94724258 -227.5583548 113.99433868 -228.69996643 114.04286194 C-229.91530563 114.08028 -231.13064484 114.11769806 -232.3828125 114.15625 C-234.32275955 114.23491997 -236.26270592 114.31360964 -238.2026186 114.39312267 C-240.27686128 114.47588447 -242.35126066 114.55204185 -244.42581177 114.62664795 C-251.65150673 114.88895819 -258.87451784 115.21490618 -266.09765625 115.5390625 C-266.82413046 115.57132431 -267.55060467 115.60358612 -268.29909325 115.63682556 C-353.29859263 117.33982862 -353.29859263 117.33982862 -432.09375 144.34765625 C-432.75375 145.33765625 -433.41375 146.32765625 -434.09375 147.34765625 C-381.83986819 196.03877339 -268.40480876 198.90892461 -201.09375 202.34765625 C-200.3358316 202.3889566 -199.57791321 202.43025696 -198.79702759 202.47280884 C-183.78835178 203.28419207 -168.81064117 203.5500905 -153.78125 203.53515625 C-152.0787207 203.53424988 -152.0787207 203.53424988 -150.34179688 203.5333252 C-56.174653 205.18113592 -56.174653 205.18113592 27.19140625 171.171875 C27.75730469 170.56988281 28.32320312 169.96789063 28.90625 169.34765625 C-5.40290685 137.93124522 -66.11605706 133.07561903 -110.12991333 124.68408203 C-117.46054774 123.28451045 -124.77876548 121.82676637 -132.09375 120.34765625 C-130.68367399 115.8217741 -128.89723446 111.5774427 -126.85546875 107.30859375 C-126.37944214 106.30219597 -126.37944214 106.30219597 -125.89379883 105.27546692 C-124.85932413 103.0897407 -123.82030148 100.90620993 -122.78125 98.72265625 C-121.33178604 95.66479424 -119.88460148 92.6058556 -118.4375 89.546875 C-118.0729924 88.77714859 -117.7084848 88.00742218 -117.33293152 87.21437073 C-114.94772774 82.17219671 -112.58764544 77.11907619 -110.25 72.0546875 C-109.95261429 71.41084106 -109.65522858 70.76699463 -109.34883118 70.1036377 C-107.95177483 67.07710676 -106.55829599 64.04901187 -105.16870117 61.01904297 C-104.67345947 59.94541504 -104.17821777 58.87178711 -103.66796875 57.765625 C-103.02734497 56.36993286 -103.02734497 56.36993286 -102.3737793 54.94604492 C-101.95136963 54.08857666 -101.52895996 53.2311084 -101.09375 52.34765625 C-100.65724121 51.43757813 -100.22073242 50.5275 -99.77099609 49.58984375 C-98.09375 47.34765625 -98.09375 47.34765625 -95.61694336 46.44458008 C-94.64893799 46.31591553 -93.68093262 46.18725098 -92.68359375 46.0546875 C-91.61044922 45.89935547 -90.53730469 45.74402344 -89.43164062 45.58398438 C-88.30951172 45.44412109 -87.18738281 45.30425781 -86.03125 45.16015625 C-83.83178611 44.85593376 -81.63256305 44.54996462 -79.43359375 44.2421875 C-78.36270508 44.09241455 -77.29181641 43.9426416 -76.18847656 43.78833008 C-74.65658691 43.57019653 -74.65658691 43.57019653 -73.09375 43.34765625 C-72.16788086 43.21963623 -71.24201172 43.09161621 -70.28808594 42.9597168 C-64.49822549 42.01021026 -60.86369796 40.38751804 -56.46875 36.53515625 C-55.88738281 36.05304688 -55.30601562 35.5709375 -54.70703125 35.07421875 C-53.46627073 34.04420312 -52.23166652 33.0067321 -51.00292969 31.96240234 C-47.742734 29.20499387 -44.41252409 26.53397792 -41.09375 23.84765625 C-39.74865919 22.75134959 -38.40360693 21.65499564 -37.05859375 20.55859375 C-31.74465201 16.2414222 -26.39657788 11.95449068 -20.93971252 7.81861877 C-19.03524305 6.33987435 -19.03524305 6.33987435 -17.14988708 4.53636169 C-11.18882408 -0.74827829 -7.68751956 -1.45252779 0 0 Z " fill="#B64029" transform="translate(806.09375,1508.65234375)"/>
<path d="M0 0 C0.73049561 0.00093658 1.46099121 0.00187317 2.21362305 0.00283813 C31.258891 0.0835371 57.44078257 4.21582882 79.11328125 25.3046875 C99.89498405 47.33732775 102.70838553 77.24129105 101.9375 106.1875 C101.6075 106.8475 101.2775 107.5075 100.9375 108.1875 C100.69640154 109.67550978 100.49857085 111.17067021 100.32421875 112.66796875 C100.21013672 113.58642578 100.09605469 114.50488281 99.97851562 115.45117188 C99.74905784 117.34895253 99.5247911 119.24737073 99.30664062 121.14648438 C97.23326792 137.58617723 91.48552922 153.36899072 86.375 169.0625 C86.02123291 170.15021698 85.66746582 171.23793396 85.30297852 172.35861206 C80.04997325 188.43890487 74.45819116 204.01072589 66.9375 219.1875 C66.28485817 220.53631414 65.6324947 221.88526303 64.98046875 223.234375 C63.75070357 225.74876238 62.49185955 228.2456901 61.2109375 230.734375 C59.36242988 234.32916863 57.57148174 237.95011751 55.7890625 241.578125 C43.15457585 267.23620708 28.7834932 291.76107893 13.9375 316.1875 C13.3177832 317.2074707 12.69806641 318.22744141 12.05957031 319.27832031 C10.40007469 322.00190578 8.73355711 324.72099556 7.0625 327.4375 C6.61261719 328.17242676 6.16273437 328.90735352 5.69921875 329.66455078 C0.86047788 337.47610164 -4.29206711 345.08316101 -9.40661621 352.71539307 C-11.05684298 355.1790545 -12.70405559 357.6447068 -14.35058594 360.11083984 C-17.15684509 364.31217914 -19.9710824 368.50809479 -22.78930664 372.70141602 C-23.9300421 374.40087904 -25.06871466 376.10172856 -26.20532227 377.80395508 C-33.62866152 388.91821054 -41.32201872 399.72028552 -49.55404663 410.2507782 C-52.18464398 413.62823443 -54.77779146 417.03434646 -57.375 420.4375 C-57.96909668 421.21391846 -58.56319336 421.99033691 -59.17529297 422.7902832 C-62.10420895 426.62028965 -65.02744336 430.45453853 -67.9453125 434.29296875 C-76.06231535 444.96914777 -84.22547359 455.6059354 -92.48681641 466.17089844 C-93.95642582 468.05174346 -95.42205482 469.93561557 -96.88671875 471.8203125 C-103.60012809 480.43777839 -110.52584467 488.87146822 -117.4921875 497.28515625 C-119.5712402 499.80380964 -121.62918129 502.33938999 -123.6875 504.875 C-128.52918452 510.79957514 -133.52003558 516.59321941 -138.51416016 522.38916016 C-140.5363552 524.7378654 -142.55325805 527.09107687 -144.56958008 529.44482422 C-145.56513564 530.6069298 -146.56106694 531.7687136 -147.55737305 532.93017578 C-150.08768569 535.88007556 -152.61384062 538.8333767 -155.1328125 541.79296875 C-160.60207724 548.21109908 -166.14426848 554.53480742 -171.83984375 560.75390625 C-175.96260347 565.26792963 -179.96021065 569.88467835 -183.9140625 574.546875 C-193.34820182 585.65326176 -193.34820182 585.65326176 -198.515625 590.6484375 C-200.14021929 592.26482677 -201.63120692 593.94967141 -203.125 595.6875 C-207.17243325 600.3807035 -211.41708604 604.8827726 -215.65527344 609.40283203 C-219.42714831 613.42783272 -223.16475957 617.48070473 -226.875 621.5625 C-230.81549131 625.87910281 -234.87795 630.03010158 -239.0390625 634.1328125 C-240.84693886 635.96860973 -242.52490496 637.84608049 -244.1875 639.8125 C-248.33706623 644.66340137 -252.91446507 649.09100173 -257.46923828 653.55712891 C-260.54944563 656.59561425 -263.52021317 659.66725839 -266.33436584 662.95518494 C-269.87986739 667.02910738 -273.60767036 670.8740675 -277.43139648 674.68579102 C-278.13157898 675.38772583 -278.83176147 676.08966064 -279.55316162 676.81286621 C-281.84414844 679.10821643 -284.13872899 681.39993364 -286.43359375 683.69140625 C-288.04124801 685.29973513 -289.64875389 686.90821236 -291.25611877 688.51683044 C-294.61581945 691.87800063 -297.97730972 695.23736786 -301.34008789 698.59545898 C-305.63486776 702.88454205 -309.92514209 707.17809939 -314.21407986 711.47302341 C-317.52980863 714.79237798 -320.84793065 718.10933197 -324.16676521 721.42558098 C-325.7490266 723.00717868 -327.33055489 724.58951016 -328.91131401 726.17260933 C-331.12652453 728.39037961 -333.34495032 730.60488504 -335.56420898 732.81860352 C-336.20705338 733.46347214 -336.84989777 734.10834076 -337.51222229 734.77275085 C-341.33232538 738.57534172 -345.26918471 742.18730689 -349.35638523 745.70168972 C-351.35548005 747.44264859 -353.22155646 749.28080847 -355.0625 751.1875 C-357.53963913 753.75310838 -360.12129246 756.13234032 -362.8125 758.46875 C-366.99794371 762.10388537 -371.03835255 765.87556345 -375.0625 769.6875 C-379.66302765 774.0454217 -384.31742363 778.30929405 -389.10253906 782.46386719 C-392.28091064 785.25899715 -395.35662291 788.16086209 -398.4375 791.0625 C-403.49153396 795.80077431 -408.57386971 800.49932098 -413.7421875 805.11328125 C-415.33812202 806.53994999 -416.92626125 807.97537168 -418.5078125 809.41796875 C-422.74725367 813.27865107 -427.04006253 817.02030622 -431.5 820.625 C-436.273903 824.48575137 -440.79638428 828.56187075 -445.3125 832.71875 C-448.87434229 835.91631296 -452.58815833 838.90138343 -456.3125 841.90625 C-459.14349578 844.25468968 -461.85633598 846.69659902 -464.5625 849.1875 C-468.93369657 853.2067782 -473.43762873 856.98783498 -478.05859375 860.71484375 C-481.55916519 863.59632843 -484.96526803 866.57473435 -488.375 869.5625 C-493.68003629 874.19753928 -499.08879281 878.64182818 -504.65600586 882.95703125 C-509.31817759 886.57803449 -513.88853495 890.30046932 -518.4375 894.0625 C-530.5635746 904.08558911 -542.74601002 914.02701395 -555.15527344 923.69824219 C-557.25570067 925.33836074 -559.35050274 926.98552614 -561.4453125 928.6328125 C-568.75135886 934.36455482 -576.08486224 940.01733219 -583.67504883 945.3684082 C-588.58100547 948.82778136 -593.42117153 952.37136275 -598.25 955.9375 C-599.05228027 956.52974365 -599.85456055 957.1219873 -600.68115234 957.73217773 C-603.14215587 959.54986974 -605.60241714 961.3685622 -608.0625 963.1875 C-614.38881486 967.86375014 -620.72052732 972.5325026 -627.0625 977.1875 C-627.84044922 977.75919922 -628.61839844 978.33089844 -629.41992188 978.91992188 C-655.59560096 998.12123185 -682.45393822 1015.24612273 -715.0625 1020.1875 C-716.12098145 1020.36555176 -717.17946289 1020.54360352 -718.27001953 1020.72705078 C-730.51269319 1022.55817131 -742.7386253 1022.49066487 -755.09667969 1022.44824219 C-758.79118415 1022.43756162 -762.48519814 1022.4481674 -766.1796875 1022.4609375 C-784.21259061 1022.47196795 -801.73752813 1021.60280002 -819.38671875 1017.7734375 C-823.66098988 1017.09209779 -827.74712517 1017.06562805 -832.0625 1017.1875 C-805.52823788 1032.69937469 -781.8987894 1041.40207554 -751.19921875 1044.73828125 C-750.49812988 1044.81731689 -749.79704102 1044.89635254 -749.07470703 1044.9777832 C-747.27188105 1045.171701 -745.46605127 1045.33712334 -743.66015625 1045.5 C-741.0625 1046.1875 -741.0625 1046.1875 -739.68359375 1048.25 C-739.47863281 1048.889375 -739.27367187 1049.52875 -739.0625 1050.1875 C-742.07868451 1054.6559215 -745.31543822 1057.13698508 -749.93359375 1059.92578125 C-750.50538361 1060.27195999 -751.07717346 1060.61813873 -751.66629028 1060.97480774 C-757.8651525 1064.70874388 -764.14452792 1068.30258991 -770.4375 1071.875 C-771.66007672 1072.57098011 -772.88256865 1073.26710919 -774.10498047 1073.96337891 C-777.75554582 1076.04151187 -781.4088231 1078.11484413 -785.0625 1080.1875 C-786.13048828 1080.79384277 -787.19847656 1081.40018555 -788.29882812 1082.02490234 C-800.16508101 1088.75883047 -812.036867 1095.48562389 -823.99755859 1102.05078125 C-825.328419 1102.78339961 -826.65705699 1103.52007701 -827.98291016 1104.26171875 C-852.52053259 1117.97373211 -879.00224127 1128.7175229 -905.0625 1139.1875 C-906.27164062 1139.67347656 -907.48078125 1140.15945313 -908.7265625 1140.66015625 C-962.07308382 1161.80289202 -1025.0148317 1178.83241299 -1080.0625 1155.1875 C-1082.07478325 1154.21245326 -1084.08042884 1153.2225816 -1086.0625 1152.1875 C-1086.59875 1153.0640625 -1087.135 1153.940625 -1087.6875 1154.84375 C-1094.67999196 1166.19274847 -1102.0618606 1177.26800374 -1109.48339844 1188.33935547 C-1130.37473273 1219.39673499 -1130.37473273 1219.39673499 -1150.61376953 1250.87988281 C-1152.05398146 1253.17393121 -1153.50716969 1255.45920185 -1154.96484375 1257.7421875 C-1162.7509981 1269.95476209 -1170.26274547 1282.33123263 -1177.75578308 1294.72473145 C-1180.24981139 1298.84870176 -1182.7528358 1302.96708349 -1185.26171875 1307.08203125 C-1194.88447454 1322.8713825 -1204.37278404 1338.73718312 -1213.78364563 1354.65371704 C-1216.06275419 1358.50624386 -1218.35533628 1362.35027208 -1220.66015625 1366.1875 C-1226.95641976 1376.69533923 -1232.91715182 1387.34014921 -1238.68383789 1398.14794922 C-1244.10617085 1408.31022036 -1249.68656929 1418.37826765 -1255.296875 1428.4375 C-1255.89056885 1429.50427979 -1256.4842627 1430.57105957 -1257.09594727 1431.67016602 C-1258.51415514 1434.2140152 -1259.94780852 1436.74867587 -1261.38647461 1439.28100586 C-1267.76372849 1450.55851573 -1273.52226941 1462.07139034 -1279.125 1473.75 C-1280.7993704 1477.23241855 -1282.47776093 1480.71285759 -1284.16015625 1484.19140625 C-1284.77040146 1485.45581039 -1284.77040146 1485.45581039 -1285.39297485 1486.74575806 C-1288.45890278 1493.05523925 -1291.69070328 1499.26358375 -1295.10450745 1505.39222717 C-1297.35821429 1509.52212104 -1298.95477759 1513.61127889 -1300.37214661 1518.09553528 C-1301.27826352 1520.84132407 -1302.45733632 1523.39640323 -1303.7265625 1525.9921875 C-1304.20867188 1526.98734375 -1304.69078125 1527.9825 -1305.1875 1529.0078125 C-1305.93 1530.51988281 -1305.93 1530.51988281 -1306.6875 1532.0625 C-1307.68118695 1534.1008322 -1308.67344272 1536.13986291 -1309.6640625 1538.1796875 C-1310.10057129 1539.07026855 -1310.53708008 1539.96084961 -1310.98681641 1540.87841797 C-1312.15080263 1543.26247979 -1312.15080263 1543.26247979 -1313.0625 1546.1875 C-1336.64488484 1545.61278455 -1336.64488484 1545.61278455 -1348.0625 1542.1875 C-1347.51963667 1535.94457172 -1346.04694948 1530.65169672 -1343.8125 1524.8125 C-1343.49531006 1523.97033936 -1343.17812012 1523.12817871 -1342.85131836 1522.26049805 C-1340.59514283 1516.36109299 -1338.04249482 1510.75652821 -1335.0625 1505.1875 C-1333.93175592 1502.94018157 -1332.80755747 1500.69012143 -1331.6875 1498.4375 C-1330.9975518 1497.05981771 -1330.30743438 1495.68222017 -1329.6171875 1494.3046875 C-1327.91796078 1490.90762573 -1326.22898265 1487.50561806 -1324.54492188 1484.10101318 C-1318.0820194 1471.0407086 -1311.55434191 1458.05798678 -1304.48144531 1445.31396484 C-1300.6466364 1438.36481849 -1297.07924762 1431.30219901 -1293.5625 1424.1875 C-1284.98022458 1406.86542959 -1275.62303035 1390.05535099 -1265.90625 1373.34716797 C-1261.55077874 1365.83640464 -1257.33842294 1358.2599086 -1253.18325806 1350.63769531 C-1245.92831181 1337.33959164 -1238.24675444 1324.35372366 -1230.30282593 1311.4571228 C-1226.59903386 1305.44392604 -1222.93894777 1299.40448825 -1219.27957153 1293.36419678 C-1217.5011765 1290.43020528 -1215.71929615 1287.49833307 -1213.9375 1284.56640625 C-1211.60129544 1280.72178167 -1209.26766838 1276.87562903 -1206.9375 1273.02734375 C-1201.80237859 1264.56263277 -1196.53116897 1256.20278392 -1191.12890625 1247.90625 C-1187.49836374 1242.32858071 -1183.90284708 1236.72860574 -1180.3125 1231.125 C-1179.63098877 1230.06152344 -1178.94947754 1228.99804688 -1178.24731445 1227.90234375 C-1174.25711242 1221.66146311 -1170.31329291 1215.39429569 -1166.40820312 1209.09985352 C-1155.23186266 1191.08613545 -1143.43569468 1173.49696415 -1131.36572266 1156.07177734 C-1129.99385472 1154.08824855 -1128.62708953 1152.10128749 -1127.26171875 1150.11328125 C-1126.79338623 1149.43354248 -1126.32505371 1148.75380371 -1125.8425293 1148.0534668 C-1124.91476706 1146.6975314 -1123.99545288 1145.33577213 -1123.08520508 1143.96801758 C-1120.93351048 1140.7587704 -1118.76776111 1137.78468557 -1116.125 1134.9609375 C-1113.3601038 1131.88310753 -1111.38476772 1129.18092599 -1110.0625 1125.1875 C-1110.68397768 1120.21102326 -1112.97580565 1115.72626801 -1114.98828125 1111.18359375 C-1124.81691451 1088.73871221 -1121.30261375 1059.33164522 -1116.0625 1036.1875 C-1115.81580566 1035.08792969 -1115.56911133 1033.98835938 -1115.31494141 1032.85546875 C-1109.15215118 1005.88900544 -1099.98956335 980.5381374 -1089.0625 955.1875 C-1088.65354492 954.2382666 -1088.24458984 953.2890332 -1087.82324219 952.31103516 C-1078.93966262 931.83935329 -1068.68540969 912.20146924 -1057.58203125 892.85498047 C-1055.75800786 889.6529754 -1053.97877366 886.42799905 -1052.20629883 883.19726562 C-1031.83675765 846.09427623 -1008.03619448 810.71576512 -983.1796875 776.48828125 C-980.87127154 773.30912236 -978.58162116 770.11762012 -976.30688477 766.91430664 C-966.51352371 753.12349021 -956.43473167 739.54775868 -946.0625 726.1875 C-944.39353119 724.02260148 -942.72809144 721.85499741 -941.0625 719.6875 C-940.22790406 718.60283421 -939.39326872 717.51819873 -938.55859375 716.43359375 C-936.90296114 714.2814653 -935.24948773 712.12770335 -933.59765625 709.97265625 C-924.26114322 697.7980502 -914.76148071 685.77021482 -905.06640625 673.87890625 C-902.63133821 670.89106942 -900.21512587 667.88902967 -897.8125 664.875 C-890.52989449 655.75273841 -883.08060358 646.77806257 -875.51269531 637.89208984 C-874.04446961 636.16630671 -872.58076467 634.43675728 -871.1171875 632.70703125 C-865.66751486 626.28694227 -860.09970114 620.01706099 -854.34741211 613.86669922 C-851.32333403 610.61350182 -848.46216773 607.28468125 -845.6875 603.8125 C-840.86001343 597.79576035 -835.57979536 592.24219097 -830.29296875 586.6328125 C-827.3496576 583.50706818 -824.49419781 580.31876839 -821.69140625 577.06640625 C-818.95941929 573.91512154 -816.15448315 570.82962899 -813.359375 567.734375 C-811.90694159 566.1238536 -810.45849324 564.50972143 -809.015625 562.890625 C-802.48831962 555.57807987 -795.77456495 548.44494497 -789.05517578 541.30957031 C-787.12260536 539.2515083 -785.19877148 537.18565055 -783.27734375 535.1171875 C-774.82391066 526.04077879 -766.16321307 517.20306713 -757.33154297 508.4934082 C-756.48865723 507.65898193 -755.64577148 506.82455566 -754.77734375 505.96484375 C-753.66540649 504.87030884 -753.66540649 504.87030884 -752.53100586 503.75366211 C-750.6665143 501.81540963 -748.93247739 499.87055489 -747.1953125 497.82470703 C-741.22715624 490.9570639 -734.65792185 484.63954385 -728.22265625 478.21484375 C-726.77194381 476.76345649 -725.32137975 475.31192092 -723.87095642 473.86024475 C-720.84080417 470.82862391 -717.80886547 467.79880433 -714.77563477 464.77026367 C-710.90459345 460.9049191 -707.0380596 457.03510175 -703.17286015 453.16391659 C-700.18139448 450.16882263 -697.18753289 447.17613271 -694.19296074 444.18414497 C-692.76700056 442.75884779 -691.3417715 441.33281872 -689.91731453 439.90601921 C-676.7598529 426.731667 -676.7598529 426.731667 -670.59422302 421.49684143 C-668.49744262 419.70447988 -666.55774476 417.77915256 -664.625 415.8125 C-663.87476563 415.05453125 -663.12453125 414.2965625 -662.3515625 413.515625 C-661.59617187 412.74734375 -660.84078125 411.9790625 -660.0625 411.1875 C-655.19110901 406.23297947 -650.28903875 401.4195004 -645.01855469 396.88964844 C-641.6520531 393.96013657 -638.42886967 390.87891841 -635.1875 387.8125 C-627.29210041 380.37809223 -619.281669 373.10139812 -611.1015625 365.98046875 C-608.85960187 364.00908957 -606.64864197 362.00587309 -604.4375 360 C-599.88526596 355.8925644 -595.25008355 351.89204074 -590.58740234 347.91137695 C-586.22838427 344.18987844 -581.89003559 340.44554919 -577.5625 336.6875 C-563.47336165 324.46125277 -549.34339716 312.27660234 -534.875 300.5 C-531.74450149 297.92603455 -528.65084366 295.31173097 -525.5625 292.6875 C-519.78704986 287.78202058 -513.94152917 282.96853401 -508.0625 278.1875 C-506.35356802 276.79239966 -504.64524921 275.39654792 -502.9375 274 C-502.03386719 273.26136719 -501.13023437 272.52273438 -500.19921875 271.76171875 C-497.82074612 269.81328768 -495.45041551 267.85521068 -493.08203125 265.89453125 C-484.78866649 259.03311436 -476.44406841 252.25664744 -467.94482422 245.65185547 C-465.87805804 244.04401325 -463.81588346 242.43038488 -461.75390625 240.81640625 C-452.58750418 233.65129412 -443.34651657 226.59773095 -434.01708984 219.64648438 C-432.06664509 218.19059407 -430.12049133 216.72916467 -428.17578125 215.265625 C-413.0361579 203.87264749 -397.8152957 192.60688822 -382.28857422 181.74560547 C-379.93094062 180.09541709 -377.57663525 178.44055311 -375.22265625 176.78515625 C-364.71306781 169.40167551 -354.14799251 162.10410719 -343.53271484 154.87353516 C-340.9829834 153.13322627 -338.43836554 151.38563451 -335.89453125 149.63671875 C-314.96878132 135.27141221 -293.75341581 121.37150308 -272.0625 108.1875 C-271.26247559 107.70007324 -270.46245117 107.21264648 -269.63818359 106.71044922 C-247.33724302 93.14717183 -224.70303075 80.21928097 -201.60693359 68.05810547 C-198.10105006 66.21119913 -194.60775438 64.34106142 -191.11328125 62.47265625 C-173.51274289 53.1369955 -155.51163254 44.898767 -137.22802734 36.99316406 C-133.49313605 35.37785057 -129.77121478 33.73430599 -126.05078125 32.0859375 C-104.17511006 22.48597747 -81.54572295 15.36270981 -58.625 8.75 C-57.90273224 8.54035614 -57.18046448 8.33071228 -56.43630981 8.11471558 C-37.63587439 2.68301294 -19.5808977 -0.03240586 0 0 Z M-133.78173828 73.08984375 C-136.61923915 74.4554404 -139.46421715 75.80503422 -142.30859375 77.15625 C-154.06390638 82.75802057 -165.73483924 88.46239793 -177.21484375 94.609375 C-180.77125366 96.51265928 -184.34957205 98.36756868 -187.94140625 100.203125 C-202.61917293 107.71591009 -216.90344036 115.74105065 -231.0625 124.1875 C-232.76418241 125.19554972 -234.46599969 126.20337182 -236.16796875 127.2109375 C-249.26448386 134.99141851 -262.17557803 143.06589988 -275.0625 151.1875 C-275.99352539 151.77289551 -276.92455078 152.35829102 -277.88378906 152.96142578 C-301.81851064 168.02372037 -325.39961552 183.66611413 -348.28491211 200.28417969 C-353.3255795 203.94324277 -358.40025295 207.54886343 -363.5 211.125 C-372.80064334 217.65917536 -381.94155508 224.40558486 -391.0625 231.1875 C-391.65434082 231.62723145 -392.24618164 232.06696289 -392.85595703 232.52001953 C-410.37469481 245.55192867 -427.55795099 259.04283533 -444.7109375 272.55078125 C-446.9624582 274.32377175 -449.21786764 276.09162755 -451.4765625 277.85546875 C-458.41230919 283.27708738 -465.27555443 288.77880337 -472.09448242 294.34667969 C-476.43965388 297.88839641 -480.82703066 301.36863295 -485.25 304.8125 C-491.45609349 309.65491488 -497.47476544 314.69348646 -503.45361328 319.8125 C-506.14755823 322.11482139 -508.85574815 324.40026423 -511.5625 326.6875 C-512.64590123 327.60408641 -513.72923459 328.52075307 -514.8125 329.4375 C-521.3125 334.9375 -521.3125 334.9375 -522.93823242 336.31298828 C-524.01929731 337.22782299 -525.10018985 338.14286141 -526.1809082 339.05810547 C-528.92255658 341.37951927 -531.66730012 343.69709116 -534.41796875 346.0078125 C-540.24948615 350.91309765 -545.9801181 355.89388561 -551.6171875 361.0234375 C-554.1244851 363.24235582 -556.70042876 365.34327379 -559.3125 367.4375 C-565.07628293 372.09757982 -570.45013622 377.12324521 -575.8515625 382.19140625 C-578.23609485 384.42664733 -580.6501206 386.6145028 -583.125 388.75 C-588.32369974 393.24079169 -593.32928714 397.9450538 -598.36572266 402.61572266 C-600.52214138 404.61328003 -602.68415472 406.60471909 -604.84619141 408.59619141 C-613.9798086 417.01234741 -623.05758534 425.48838926 -632.11328125 433.98828125 C-632.78633301 434.62000244 -633.45938477 435.25172363 -634.15283203 435.90258789 C-635.50423454 437.17112902 -636.85547278 438.43984517 -638.20654297 439.70874023 C-642.44690386 443.68674113 -646.71524199 447.63243002 -651 451.5625 C-655.37784003 455.57933579 -659.63650873 459.68766159 -663.76953125 463.95703125 C-665.59723741 465.73491918 -667.44197154 467.36862071 -669.3828125 469.015625 C-675.58042996 474.39907245 -681.30634349 480.28268833 -687.09887695 486.09350586 C-689.12014268 488.1201298 -691.14669574 490.14135547 -693.17382812 492.16210938 C-694.48209154 493.4710337 -695.79004467 494.78026824 -697.09765625 496.08984375 C-697.99013817 496.97928932 -697.99013817 496.97928932 -698.90065002 497.88670349 C-701.88097428 500.88338664 -704.74431182 503.93463724 -707.50561523 507.13500977 C-711.13227117 511.32600338 -714.99618492 515.23138826 -718.9375 519.125 C-720.02973877 520.21155884 -720.02973877 520.21155884 -721.14404297 521.32006836 C-724.22306951 524.38292424 -727.30808323 527.43972311 -730.39257812 530.49707031 C-732.65965458 532.74594117 -734.92362966 534.99790238 -737.1875 537.25 C-737.87312012 537.92732178 -738.55874023 538.60464355 -739.26513672 539.30249023 C-743.19274438 543.21036843 -746.92622379 547.22401396 -750.53039551 551.43273926 C-752.75714409 553.98309468 -755.13990769 556.32190986 -757.5625 558.6875 C-761.3055589 562.37460694 -764.84506114 566.16273357 -768.25390625 570.16015625 C-771.16486359 573.42319483 -774.30558561 576.45050441 -777.4375 579.5 C-780.14925148 582.27631699 -782.67904741 585.16360913 -785.21972656 588.09521484 C-788.20248398 591.48183793 -791.32684909 594.73131705 -794.4375 598 C-799.49954326 603.35470426 -804.29988997 608.7825686 -808.890625 614.546875 C-811.34292141 617.52844402 -813.93319757 620.36326731 -816.5625 623.1875 C-820.85218341 627.79740861 -824.86661797 632.56534354 -828.81640625 637.47265625 C-831.1508059 640.29423495 -833.58240598 642.99340712 -836.0625 645.6875 C-840.10129086 650.08046175 -843.90681603 654.6055091 -847.65625 659.24609375 C-850.36835857 662.56138231 -853.14362789 665.81613384 -855.9375 669.0625 C-864.77350756 679.33535953 -873.51739261 689.67044475 -882.0625 700.1875 C-883.08314434 701.43765432 -884.10399067 702.68764375 -885.125 703.9375 C-896.09068442 717.37561431 -906.75109011 731.02626647 -917.25878906 744.82470703 C-919.17452942 747.3342543 -921.09846152 749.83737497 -923.0234375 752.33984375 C-930.25888545 761.76287336 -937.33605211 771.2569853 -944.12890625 781.00390625 C-946.71180959 784.70638842 -949.35485899 788.36217928 -952.01220703 792.01147461 C-957.73864863 799.87677803 -963.25683767 807.83952232 -968.59863281 815.96972656 C-970.94985494 819.53185161 -973.32791213 823.07599004 -975.70141602 826.62329102 C-981.98178017 836.01726676 -988.23214055 845.43130597 -994.4375 854.875 C-995.39209106 856.31746094 -995.39209106 856.31746094 -996.3659668 857.7890625 C-996.95418213 858.68753906 -997.54239746 859.58601562 -998.1484375 860.51171875 C-998.6645459 861.29635498 -999.1806543 862.08099121 -999.71240234 862.8894043 C-1001.10286017 865.25619986 -1002.11012713 867.61666184 -1003.0625 870.1875 C-1003.7225 870.1875 -1004.3825 870.1875 -1005.0625 870.1875 C-1005.5575 871.239375 -1006.0525 872.29125 -1006.5625 873.375 C-1009.15961859 878.61628644 -1012.31896087 883.4996702 -1015.453125 888.4296875 C-1017.23050772 890.94322043 -1017.23050772 890.94322043 -1017.0625 893.1875 C-1017.7225 893.1875 -1018.3825 893.1875 -1019.0625 893.1875 C-1019.61164063 894.32058594 -1019.61164063 894.32058594 -1020.171875 895.4765625 C-1023.36178942 901.96272182 -1026.67746433 908.34746108 -1030.1862793 914.66748047 C-1044.66574501 940.78185268 -1056.62351146 968.06845595 -1067.984375 995.65405273 C-1068.9455641 997.91271653 -1069.97648509 1000.11195905 -1071.0625 1002.3125 C-1080.57669143 1023.91843273 -1090.94256062 1060.71566466 -1082.71875 1083.59765625 C-1082.5021875 1084.12230469 -1082.285625 1084.64695312 -1082.0625 1085.1875 C-1077.7947916 1081.18652338 -1074.44486341 1076.82435535 -1071.0625 1072.0625 C-1070.50071045 1071.27842773 -1069.9389209 1070.49435547 -1069.36010742 1069.68652344 C-1064.72514548 1063.18841901 -1060.21530741 1056.60714343 -1055.72192383 1050.01074219 C-1047.88076179 1038.50359766 -1039.69557653 1027.33290052 -1031.22729492 1016.27783203 C-1026.77533548 1010.45960494 -1022.39018195 1004.59864677 -1018.0625 998.6875 C-1012.47797483 991.06259792 -1006.77633016 983.53410629 -1001.02783203 976.03222656 C-996.58533606 970.22272615 -992.24145586 964.35006012 -987.9375 958.4375 C-982.34654234 950.77840385 -976.43693294 943.44339976 -970.36328125 936.1640625 C-964.24700648 928.82876671 -958.43653755 921.25043102 -952.5859375 913.703125 C-946.17909346 905.44178145 -939.72964985 897.24101372 -933.0625 889.1875 C-931.6036501 887.39625392 -930.14532976 885.60457644 -928.6875 883.8125 C-925.33540763 879.71159817 -921.93101766 875.65968812 -918.5 871.625 C-914.58916711 867.02417868 -910.76655344 862.36643953 -907.01171875 857.63671875 C-901.18903635 850.32044247 -895.20179127 843.14614868 -889.14697266 836.02197266 C-886.26742259 832.62853984 -883.43067528 829.20509017 -880.625 825.75 C-875.72677761 819.73616823 -870.67336754 813.86116596 -865.61083984 807.98583984 C-863.08957037 805.05747797 -860.57647889 802.1221201 -858.0625 799.1875 C-857.56991699 798.61314209 -857.07733398 798.03878418 -856.56982422 797.44702148 C-854.028333 794.48360787 -851.49004147 791.51754236 -848.95703125 788.546875 C-844.48709061 783.30973205 -840.0095481 778.09317526 -835.375 773 C-832.42117819 769.75079601 -829.61800252 766.42875315 -826.875 763 C-821.97014404 756.93142602 -816.63494999 751.30043336 -811.28515625 745.625 C-808.38932346 742.54977934 -805.58728404 739.40870474 -802.83203125 736.20703125 C-800.4536558 733.49263807 -798.00741095 730.84177613 -795.5625 728.1875 C-792.52355508 724.88727216 -789.50093789 721.57800526 -786.5625 718.1875 C-782.30713819 713.2837021 -777.8949039 708.52355186 -773.49755859 703.74755859 C-771.65505675 701.74456662 -769.81735065 699.73721137 -767.97973633 697.72973633 C-763.20455379 692.51395306 -758.41692083 687.30976881 -753.61572266 682.11791992 C-751.07754078 679.37306571 -748.54469689 676.62369547 -746.0234375 673.86328125 C-741.19981511 668.59196203 -736.3340417 663.39685962 -731.25 658.375 C-728.31867281 655.4769361 -725.47301378 652.58543615 -722.8125 649.4375 C-718.71310394 644.62170463 -714.16754899 640.24186192 -709.65527344 635.81738281 C-706.57019002 632.77409834 -703.59875121 629.70004308 -700.78125 626.40625 C-695.72111744 620.5378623 -690.1193091 615.18720924 -684.60546875 609.75097656 C-683.17230594 608.33616287 -681.74236733 606.91814302 -680.3125 605.5 C-679.05179688 604.25669922 -679.05179688 604.25669922 -677.765625 602.98828125 C-675.67296744 600.8200219 -673.69154182 598.63179994 -671.72436523 596.35375977 C-668.05978805 592.13000158 -664.18138024 588.16182625 -660.22265625 584.21484375 C-659.49686874 583.48809952 -658.77108124 582.76135529 -658.02330017 582.0125885 C-656.49926444 580.48787704 -654.97398431 578.9644085 -653.44750977 577.44213867 C-651.13117537 575.13116109 -648.82022922 572.81489229 -646.50976562 570.49804688 C-645.01854966 569.0074918 -643.52702347 567.517247 -642.03515625 566.02734375 C-641.35469742 565.34486069 -640.67423859 564.66237762 -639.97315979 563.95921326 C-636.05905738 560.06387547 -632.03302362 556.36512482 -627.85374451 552.75636292 C-625.60959495 550.79082276 -623.49802869 548.72004017 -621.40625 546.59375 C-620.21322266 545.38912109 -620.21322266 545.38912109 -618.99609375 544.16015625 C-618.19300781 543.34417969 -617.38992188 542.52820313 -616.5625 541.6875 C-611.4525536 536.49553198 -606.31992565 531.43951245 -600.79101562 526.69335938 C-598.60730701 524.79094204 -596.57859629 522.76563002 -594.5625 520.6875 C-591.29865087 517.38486149 -587.9483581 514.28699352 -584.42578125 511.265625 C-581.2454658 508.46905009 -578.15758816 505.57774219 -575.0625 502.6875 C-570.77995026 498.69229045 -566.47644092 494.74166717 -562.0390625 490.91796875 C-559.57092377 488.75712793 -557.16445991 486.53312298 -554.75 484.3125 C-551.16988788 481.04220527 -547.53333763 477.90723383 -543.75 474.875 C-539.33883394 471.31963791 -535.18438274 467.5680364 -531.0625 463.6875 C-526.10517022 459.02043404 -521.02421857 454.62170213 -515.70703125 450.36328125 C-512.90410752 448.057183 -510.23246725 445.64598469 -507.5625 443.1875 C-503.14609856 439.12766355 -498.60086478 435.29426179 -493.93359375 431.52734375 C-490.83262849 429.00016253 -487.790879 426.41120221 -484.75 423.8125 C-479.7642508 419.56592785 -474.67473833 415.4779441 -469.50683594 411.45581055 C-464.9535289 407.90661433 -460.46944653 404.27905288 -456 400.625 C-449.12044195 395.00952163 -442.12796846 389.56608787 -435.0625 384.1875 C-432.99890891 382.60558897 -430.9364309 381.022225 -428.875 379.4375 C-428.34559814 379.03072021 -427.81619629 378.62394043 -427.27075195 378.20483398 C-423.43722684 375.25557759 -419.61956809 372.28640936 -415.8059082 369.31152344 C-411.89650412 366.26364327 -407.98092354 363.22377349 -404.0625 360.1875 C-403.2262207 359.53942383 -402.38994141 358.89134766 -401.52832031 358.22363281 C-356.30420865 323.25829884 -311.29346986 304.90431801 -254.0625 298.1875 C-258.41125381 303.04255363 -263.4856612 306.20695771 -269 309.625 C-270.98839035 310.87352418 -272.97666851 312.12222705 -274.96484375 313.37109375 C-275.9791748 314.00515137 -276.99350586 314.63920898 -278.03857422 315.29248047 C-282.72940509 318.23210821 -287.3954573 321.21030657 -292.0625 324.1875 C-297.59068684 327.71036416 -303.12210398 331.22767137 -308.66796875 334.72265625 C-326.92873102 346.24796982 -344.63849471 358.43624576 -362.0625 371.1875 C-362.86252441 371.77208984 -363.66254883 372.35667969 -364.48681641 372.95898438 C-374.44602858 380.24285175 -384.31563363 387.62201511 -394.0625 395.1875 C-396.1244331 396.77157152 -398.18694859 398.35488522 -400.25 399.9375 C-408.54945022 406.31728012 -416.80804977 412.74966623 -425.0625 419.1875 C-425.69333496 419.67895508 -426.32416992 420.17041016 -426.97412109 420.67675781 C-439.33586472 430.31358281 -451.54707625 440.13380711 -463.47631836 450.30249023 C-466.84138283 453.16832743 -470.24897553 455.9729173 -473.6875 458.75 C-478.39679784 462.57886389 -482.86456173 466.62386193 -487.328125 470.734375 C-489.92557942 473.06466268 -492.58655714 475.25997168 -495.3125 477.4375 C-501.3628535 482.31597729 -506.9653887 487.63014017 -512.6171875 492.95703125 C-515.74025922 495.89782579 -518.92522092 498.75149177 -522.17578125 501.55078125 C-524.49908787 503.56623772 -526.77998465 505.62598462 -529.0625 507.6875 C-531.97738929 510.31930445 -534.90523211 512.93036926 -537.875 515.5 C-542.04363532 519.12966025 -546.09011432 522.88707904 -550.14379883 526.64379883 C-553.42716779 529.684622 -556.72900611 532.70147127 -560.0625 535.6875 C-568.48640766 543.24847078 -576.89320797 550.8208705 -584.76953125 558.95703125 C-586.6869915 560.82222683 -588.63902882 562.55503183 -590.66870117 564.29370117 C-595.19697382 568.2454651 -599.43164584 572.44695892 -603.65625 576.71875 C-604.44721069 577.51349731 -605.23817139 578.30824463 -606.05310059 579.1270752 C-608.55869523 581.64478432 -611.06100858 584.16571446 -613.5625 586.6875 C-616.8616168 590.01338189 -620.16414374 593.33582336 -623.46875 596.65625 C-624.58316467 597.78311218 -624.58316467 597.78311218 -625.72009277 598.93273926 C-629.75615097 602.98746078 -633.88959244 606.8443267 -638.22372437 610.57803345 C-640.8750629 612.89873022 -643.354184 615.34943178 -645.84765625 617.83984375 C-646.35244003 618.34367081 -646.85722382 618.84749786 -647.37730408 619.36659241 C-648.43122962 620.41984524 -649.48392499 621.47433045 -650.53540039 622.5300293 C-652.12209946 624.12208966 -653.71407742 625.7087299 -655.30664062 627.29492188 C-660.22368844 632.20909238 -665.0284027 637.16845264 -669.54858398 642.45532227 C-671.92034859 645.16902487 -674.48314835 647.67308069 -677.0625 650.1875 C-680.98569426 654.05733397 -684.7167679 657.99568811 -688.2890625 662.1953125 C-691.25699915 665.52933825 -694.47805269 668.61010485 -697.65234375 671.74609375 C-700.33104532 674.45952727 -702.80858118 677.29527023 -705.28515625 680.19140625 C-707.29518777 682.44882626 -709.41082953 684.56485713 -711.5625 686.6875 C-714.30750542 689.39553565 -716.9352091 692.12919249 -719.4375 695.0625 C-722.76496527 698.94712224 -726.36835985 702.52304047 -730.00634766 706.11181641 C-733.3228251 709.40083767 -736.42233914 712.80902585 -739.453125 716.359375 C-741.08836434 718.21687988 -742.79731793 719.95356009 -744.5625 721.6875 C-747.53226021 724.61136988 -750.26756379 727.67331554 -752.98828125 730.828125 C-755.58879146 733.78614415 -758.25982622 736.67441068 -760.9375 739.5625 C-765.27858953 744.24713866 -769.58135185 748.96216077 -773.84375 753.71875 C-776.27898223 756.42837459 -778.73245276 759.12082171 -781.1875 761.8125 C-784.60422139 765.56615539 -787.97608159 769.35182648 -791.3046875 773.18359375 C-793.26253585 775.41554087 -795.25499902 777.61370859 -797.25 779.8125 C-805.32979255 788.77322393 -813.11505366 797.9768777 -820.71875 807.34375 C-823.96213763 811.27906033 -827.29396797 815.13569302 -830.62329102 818.99829102 C-833.63495009 822.49985302 -836.5930895 826.03536557 -839.5 829.625 C-843.64310991 834.73057465 -847.9448045 839.68550053 -852.26538086 844.64038086 C-855.42715838 848.27487851 -858.53100206 851.94270843 -861.5625 855.6875 C-865.13791697 860.10419155 -868.82853141 864.40526874 -872.5625 868.6875 C-877.08040487 873.87029917 -881.50176547 879.11224037 -885.828125 884.45703125 C-887.8709068 886.95336775 -889.94776564 889.4139149 -892.04248047 891.86645508 C-897.77412323 898.57811446 -903.26746797 905.44880781 -908.68310547 912.41699219 C-910.52570448 914.78204139 -912.38212407 917.13606566 -914.23828125 919.49047852 C-918.21160722 924.53198561 -922.15659341 929.59357905 -926.0625 934.6875 C-931.33749891 941.56693422 -936.69683214 948.37869185 -942.0625 955.1875 C-945.23209245 959.21169643 -948.39810229 963.23867058 -951.55859375 967.27001953 C-952.59947024 968.59713705 -953.64119328 969.92359089 -954.68359375 971.24951172 C-961.90467678 980.44054956 -968.97943639 989.7183732 -975.88208008 999.15112305 C-979.71308441 1004.37960066 -983.60844764 1009.55155593 -987.5625 1014.6875 C-992.76567701 1021.44972884 -997.85318265 1028.29023082 -1002.90014648 1035.16967773 C-1006.60829082 1040.22230149 -1010.35115387 1045.24631226 -1014.125 1050.25 C-1020.00404564 1058.0578331 -1025.72335914 1065.97672436 -1031.42578125 1073.9140625 C-1033.03902508 1076.15489283 -1034.65887192 1078.39077617 -1036.28125 1080.625 C-1042.12921731 1088.68302715 -1047.91429456 1096.78148529 -1053.625 1104.9375 C-1054.20886475 1105.7713623 -1054.79272949 1106.60522461 -1055.39428711 1107.46435547 C-1056.47552803 1109.01304483 -1057.55287057 1110.56446641 -1058.62548828 1112.11914062 C-1059.52978282 1113.42073481 -1060.44818558 1114.71274942 -1061.38623047 1115.99023438 C-1062.65654709 1117.70698044 -1062.65654709 1117.70698044 -1064.0625 1120.1875 C-1063.36058267 1123.36634792 -1063.36058267 1123.36634792 -1060.61328125 1124.6875 C-1026.85360717 1140.32527424 -990.07054524 1129.59732101 -956.0625 1120.1875 C-954.85803223 1119.85588867 -953.65356445 1119.52427734 -952.41259766 1119.18261719 C-935.80224093 1114.53605988 -920.04594486 1108.32065042 -904.22460938 1101.53271484 C-900.77169831 1100.06378804 -897.29780782 1098.65683578 -893.81347656 1097.26464844 C-885.71952501 1094.02017283 -877.96148934 1090.26609573 -870.20947266 1086.28076172 C-867.94443092 1085.12737795 -865.66767695 1084.00046689 -863.38671875 1082.87890625 C-850.75403809 1076.65623913 -838.38024744 1070.01066991 -826.0625 1063.1875 C-826.0625 1062.5275 -826.0625 1061.8675 -826.0625 1061.1875 C-827.3825 1060.8575 -828.7025 1060.5275 -830.0625 1060.1875 C-830.0625 1059.5275 -830.0625 1058.8675 -830.0625 1058.1875 C-830.76632812 1057.87039063 -831.47015625 1057.55328125 -832.1953125 1057.2265625 C-862.23862312 1043.02854887 -890.77589447 1015.32775298 -903.21875 984.3046875 C-905.41293401 977.66118592 -906.32088559 971.58214439 -903.5625 964.9375 C-901.49902607 961.28507924 -899.26370817 959.41392526 -895.39453125 957.8203125 C-889.72486717 956.28181069 -884.59689237 955.98791073 -879.20703125 958.5390625 C-877.46046735 959.60262666 -875.74077381 960.71227714 -874.05859375 961.875 C-872.18213864 963.37063542 -872.18213864 963.37063542 -870.0625 963.1875 C-870.0625 963.8475 -870.0625 964.5075 -870.0625 965.1875 C-869.32386719 965.49042969 -868.58523438 965.79335937 -867.82421875 966.10546875 C-862.77818031 968.18928386 -857.78825359 970.30646172 -852.875 972.6875 C-839.73871211 978.62480526 -825.91238652 981.12255811 -811.77172852 983.48828125 C-802.67458838 985.01198397 -802.67458838 985.01198397 -798.2890625 986.26953125 C-790.50517407 988.48407578 -782.40023835 988.35790354 -774.36328125 988.390625 C-773.25180222 988.39632507 -772.14032318 988.40202515 -770.99516296 988.40789795 C-768.64611753 988.41730749 -766.29705914 988.42386575 -763.94799805 988.42773438 C-760.43057766 988.4373481 -756.91376573 988.46837288 -753.39648438 988.5 C-708.17258731 988.71254602 -679.04720285 973.10074107 -643.31152344 946.83935547 C-640.99570144 945.13843801 -638.67396105 943.44583039 -636.3515625 941.75390625 C-626.10880304 934.27154746 -616.0510594 926.57739863 -606.06835938 918.75244141 C-603.20819438 916.52098357 -600.32248977 914.32427176 -597.4375 912.125 C-591.77943654 907.78476398 -586.24490459 903.30341104 -580.72216797 898.79272461 C-577.36434081 896.0516495 -573.99875492 893.33026858 -570.5625 890.6875 C-564.33270576 885.88807597 -558.2699381 880.87808011 -552.17529297 875.90917969 C-548.80746819 873.16479555 -545.4348143 870.42636383 -542.0625 867.6875 C-540.7356572 866.60939947 -539.40883434 865.5312744 -538.08203125 864.453125 C-535.35067878 862.23385939 -532.61885104 860.0151805 -529.88671875 857.796875 C-526.5363902 855.07647904 -523.18713243 852.35477099 -519.83886719 849.63183594 C-518.249873 848.33985001 -516.66014188 847.04877056 -515.0703125 845.7578125 C-509.62469451 841.32239611 -504.24419649 836.81723819 -498.89331055 832.26855469 C-495.52361255 829.40857147 -492.12201093 826.59475959 -488.6875 823.8125 C-482.98234597 819.16722945 -477.43871385 814.34593204 -471.890625 809.515625 C-468.27515383 806.36808134 -464.64140678 803.24247441 -461 800.125 C-460.13882568 799.38648804 -460.13882568 799.38648804 -459.26025391 798.63305664 C-456.3820506 796.16631422 -453.49747798 793.70764849 -450.6015625 791.26171875 C-442.49448801 784.39636073 -434.68235716 777.26624151 -426.95800781 769.97412109 C-423.81619441 767.01278796 -420.65769856 764.06937375 -417.5 761.125 C-416.88382813 760.55015869 -416.26765625 759.97531738 -415.6328125 759.38305664 C-414.39562466 758.22887864 -413.15832041 757.07482541 -411.92089844 755.92089844 C-410.67119995 754.75525744 -409.42185685 753.58923531 -408.17285156 752.42285156 C-406.32470683 750.69734162 -404.47502518 748.9734934 -402.625 747.25 C-402.08222412 746.74267334 -401.53944824 746.23534668 -400.98022461 745.71264648 C-398.14871526 743.07799157 -395.27863596 740.51068419 -392.33984375 737.99609375 C-386.98308278 733.33193446 -382.0458834 728.2420262 -377.0625 723.1875 C-366.55520807 712.53020594 -366.55520807 712.53020594 -362.15625 708.78125 C-356.29685191 703.76913758 -350.97724114 698.16934622 -345.5625 692.6875 C-343.38847227 690.48652946 -341.21090934 688.28914212 -339.03125 686.09375 C-338.55079224 685.6049939 -338.07033447 685.11623779 -337.57531738 684.6126709 C-334.89917139 681.91787897 -332.1480763 679.36888612 -329.26977539 676.89038086 C-324.5629406 672.81166291 -320.17427005 668.44304766 -315.77734375 664.03515625 C-314.91742325 663.17619247 -314.05750275 662.3172287 -313.17152405 661.43223572 C-311.36434139 659.62572985 -309.55840608 657.81797538 -307.75366211 656.0090332 C-305.00811607 653.2581319 -302.25727454 650.51260779 -299.50585938 647.76757812 C-297.7418668 646.00292468 -295.9781845 644.23796103 -294.21484375 642.47265625 C-293.40111801 641.66095474 -292.58739227 640.84925323 -291.74900818 640.01295471 C-287.51332093 635.76002807 -283.42994441 631.43592197 -279.52833557 626.8735199 C-277.48683397 624.52536272 -275.29098263 622.35733835 -273.0625 620.1875 C-269.43368478 616.60260388 -266.0218714 612.924564 -262.70703125 609.05078125 C-260.54850037 606.60512987 -258.23215267 604.34452888 -255.90478516 602.06103516 C-254.1308474 600.25700675 -252.47294191 598.39893374 -250.82421875 596.48046875 C-247.11532821 592.21499965 -243.26492574 588.10005034 -239.375 584 C-237.95923991 582.50037329 -236.54387871 581.0003699 -235.12890625 579.5 C-234.43812988 578.7678125 -233.74735352 578.035625 -233.03564453 577.28125 C-225.64213576 569.43582422 -218.40363765 561.50343956 -211.42749023 553.28320312 C-208.31357924 549.62038026 -205.13130584 546.03814993 -201.875 542.5 C-197.84856164 538.11394354 -194.08140278 533.57008372 -190.34375 528.9375 C-187.99531032 526.10650422 -185.55340098 523.39366402 -183.0625 520.6875 C-178.94871091 516.2176488 -175.09162703 511.59705107 -171.27734375 506.87109375 C-169.10617173 504.24041443 -166.86008643 501.70807576 -164.5625 499.1875 C-160.3433408 494.54715107 -156.37231555 489.74222795 -152.42871094 484.8671875 C-150.24909228 482.18745619 -148.04704641 479.52630175 -145.84765625 476.86279297 C-136.41420582 465.43744853 -127.19104361 453.85736546 -118.0625 442.1875 C-117.53382324 441.51187012 -117.00514648 440.83624023 -116.46044922 440.14013672 C-102.88327082 422.77435164 -89.45550103 405.31423292 -76.63476562 387.38037109 C-75.05070701 385.17105207 -73.45682711 382.96918204 -71.859375 380.76953125 C-56.98616779 360.28570233 -42.64075787 339.48488383 -28.94921875 318.19238281 C-25.5252439 312.87263365 -22.00608057 307.62634384 -18.42578125 302.41015625 C-16.88821898 300.33793013 -16.88821898 300.33793013 -17.0625 298.1875 C-16.4025 298.1875 -15.7425 298.1875 -15.0625 298.1875 C-14.76859375 297.63707031 -14.4746875 297.08664062 -14.171875 296.51953125 C-11.511821 291.58925876 -8.7929987 286.70324092 -5.9921875 281.8515625 C-5.44981445 280.91078857 -4.90744141 279.97001465 -4.34863281 279.00073242 C-3.24487464 277.08992003 -2.13747304 275.18120741 -1.02636719 273.2746582 C-0.51493164 272.38866943 -0.00349609 271.50268066 0.5234375 270.58984375 C0.9879834 269.79054443 1.4525293 268.99124512 1.93115234 268.16772461 C3.08851709 266.26054961 3.08851709 266.26054961 2.9375 264.1875 C3.5975 264.1875 4.2575 264.1875 4.9375 264.1875 C6.10904293 261.89820947 7.27488074 259.60631638 8.4375 257.3125 C8.77136719 256.66152344 9.10523438 256.01054687 9.44921875 255.33984375 C11.30593717 251.9350529 11.30593717 251.9350529 11.9375 248.1875 C12.5975 248.1875 13.2575 248.1875 13.9375 248.1875 C14.94210531 246.06467331 15.94105602 243.93916979 16.9375 241.8125 C17.494375 240.62914062 18.05125 239.44578125 18.625 238.2265625 C20.06966041 235.43321425 20.06966041 235.43321425 19.9375 233.1875 C20.5975 233.1875 21.2575 233.1875 21.9375 233.1875 C22.25642212 232.33853149 22.25642212 232.33853149 22.58178711 231.47241211 C25.22050033 224.64909352 28.34641794 218.13319428 31.59448242 211.58187866 C38.32294493 197.97007566 44.30290527 184.1686665 49.82568359 170.01806641 C50.77202102 167.6087919 51.74548722 165.21457449 52.73828125 162.82421875 C57.19743907 151.87282711 59.71115074 140.46729106 62.30761719 128.95947266 C62.83503945 126.63840585 63.38056561 124.32390709 63.9453125 122.01171875 C64.21085937 120.91472656 64.47640625 119.81773437 64.75 118.6875 C65.06904297 117.37265625 65.06904297 117.37265625 65.39453125 116.03125 C69.10381312 96.60421976 69.96325944 72.28008452 58.484375 55.2890625 C57.71867187 54.24878906 57.71867187 54.24878906 56.9375 53.1875 C56.29554688 52.24003906 56.29554688 52.24003906 55.640625 51.2734375 C48.0260039 41.10567873 34.82937572 36.7848689 22.78662109 34.57861328 C-29.50239309 27.4006355 -87.70689173 50.84922103 -133.78173828 73.08984375 Z " fill="#B6412A" transform="translate(1935.0625,133.8125)"/>
<path d="M0 0 C0.66 0.33 1.32 0.66 2 1 C-1.61328125 5.6875 -1.61328125 5.6875 -3 7 C-3.99 7 -4.98 7 -6 7 C-4.77065985 3.31197956 -3.06140622 2.27643027 0 0 Z " fill="#A3331C" transform="translate(256,1793)"/>
<path d="" fill="#AA2B00" transform="translate(0,0)"/>
<path d="" fill="#802B00" transform="translate(0,0)"/>
<path d="" fill="#91230C" transform="translate(0,0)"/>
</svg>
